<svg xmlns="http://www.w3.org/2000/svg" xmlns:xlink="http://www.w3.org/1999/xlink" viewBox="0 0 236.74 208.41"><defs><style>.cls-1{mask:url(#mask);filter:url(#luminosity-noclip-2);}.cls-2{mix-blend-mode:multiply;fill:url(#Fade_to_Black_8);}.cls-3{fill:none;}.cls-4{fill:url(#linear-gradient);}.cls-5{fill:url(#linear-gradient-2);}.cls-6{fill:#260a0e;}.cls-7{fill:#07598c;}.cls-8{fill:#b32c39;}.cls-9{fill:url(#linear-gradient-3);}.cls-10{clip-path:url(#clip-path);}.cls-11{fill:#2c2c2e;}.cls-12{fill:#2d2d2f;}.cls-13{fill:#2e2e30;}.cls-14{fill:#2f2f31;}.cls-15{fill:#303133;}.cls-16{fill:#313234;}.cls-17{fill:#333335;}.cls-18{fill:#343436;}.cls-19{fill:#353537;}.cls-20{fill:#363638;}.cls-21{fill:#373839;}.cls-22{fill:#38393a;}.cls-23{fill:#393a3c;}.cls-24{fill:#3a3b3d;}.cls-25{fill:#3b3c3e;}.cls-26{fill:#3c3d3f;}.cls-27{fill:#3d3e40;}.cls-28{fill:#3e3f41;}.cls-29{fill:#3f4042;}.cls-30{fill:#404243;}.cls-31{fill:#414344;}.cls-32{fill:#434445;}.cls-33{fill:#444546;}.cls-34{fill:#454647;}.cls-35{fill:#464749;}.cls-36{fill:#47484a;}.cls-37{fill:#48494b;}.cls-38{fill:#494a4c;}.cls-39{fill:#4a4b4d;}.cls-40{fill:#4b4c4e;}.cls-41{fill:#4c4d4f;}.cls-42{fill:#4d4e50;}.cls-43{fill:#4e4f51;}.cls-44{fill:#4f5052;}.cls-45{fill:#505153;}.cls-46{fill:#505354;}.cls-47{fill:#515455;}.cls-48{fill:#525556;}.cls-49{fill:#535657;}.cls-50{fill:#545658;}.cls-51{fill:#555759;}.cls-52{fill:#56585a;}.cls-53{fill:#57595b;}.cls-54{fill:#585a5c;}.cls-55{fill:#595b5c;}.cls-56{fill:#5a5c5d;}.cls-57{fill:#5b5d5e;}.cls-58{fill:#5b5e5f;}.cls-59{fill:#5c5f60;}.cls-60{fill:#5d6061;}.cls-61{fill:#5e6162;}.cls-62{fill:#5f6163;}.cls-63{fill:#5f6263;}.cls-64{fill:#606364;}.cls-65{fill:#616465;}.cls-66{fill:#626566;}.cls-67{fill:#5a5d5e;}.cls-68{fill:#555859;}.cls-69{fill:#535557;}.cls-70{fill:#515354;}.cls-71{fill:#4e5152;}.cls-72{fill:#4c4e50;}.cls-73{fill:#4a4c4e;}.cls-74{fill:#484a4b;}.cls-75{fill:#464849;}.cls-76{fill:#444647;}.cls-77{fill:#424345;}.cls-78{fill:#404143;}.cls-79{fill:#3a3c3d;}.cls-80{fill:#383a3c;}.cls-81{fill:#36383a;}.cls-82{fill:#353638;}.cls-83{fill:#333436;}.cls-84{fill:#313335;}.cls-85{fill:#2e2f32;}.cls-86{fill:#2d2e30;}.cls-87{fill:#2b2c2f;}.cls-88{fill:#2a2b2d;}.cls-89{fill:#28292c;}.cls-90{fill:#27282a;}.cls-91{fill:#262729;}.cls-92{fill:#242528;}.cls-93{fill:#232426;}.cls-94{fill:#222325;}.cls-95{fill:#212224;}.cls-96{fill:#202023;}.cls-97{fill:#1f1f22;}.cls-98{fill:#1d1e21;}.cls-99{fill:#1c1d20;}.cls-100{fill:#1b1c1f;}.cls-101{fill:#1a1b1e;}.cls-102{fill:#1a1a1d;}.cls-103{fill:#19191c;}.cls-104{fill:#18181b;}.cls-105{fill:#17171a;}.cls-106{fill:#161719;}.cls-107{fill:#151619;}.cls-108{fill:#151518;}.cls-109{fill:#141417;}.cls-110{fill:#131416;}.cls-111{fill:#131316;}.cls-112{fill:#121215;}.cls-113{fill:#111214;}.cls-114{fill:#111114;}.cls-115{fill:#101013;}.cls-116{fill:#0f0f12;}.cls-117{fill:#0e0e11;}.cls-118{fill:#0d0e10;}.cls-119{fill:#0d0d10;}.cls-120{fill:#0c0c0f;}.cls-121{fill:#0b0b0e;}.cls-122{fill:#0a0b0d;}.cls-123{fill:#0a0a0d;}.cls-124{fill:#09090c;}.cls-125{fill:url(#Pewter_Radial);}.cls-126{fill:#231f20;}.cls-127{fill:url(#linear-gradient-4);}.cls-128{clip-path:url(#clip-path-2);}.cls-129{fill:url(#Pewter_Radial-2);}.cls-130{fill:url(#linear-gradient-5);}.cls-131{clip-path:url(#clip-path-3);}.cls-132{fill:url(#Pewter_Radial-3);}.cls-133{fill:#07334c;}.cls-134{fill:url(#Blue);}.cls-135{mask:url(#mask-2);}.cls-136{fill:url(#Fade_to_Black_1);}.cls-137{fill:#222324;}.cls-138{fill:#695a52;}.cls-139{fill:#413833;}.cls-140{fill:#b0b5b3;}.cls-141{fill:#979797;}.cls-142{fill:#808587;}.cls-143{fill:#9da5a6;}.cls-144{fill:#e6eef2;}.cls-145{fill:#c8d3d4;}.cls-146{fill:#b8bfc2;}.cls-147{fill:#939a9c;}.cls-148{fill:#848a8c;}.cls-149{fill:#d5dde0;}.cls-150{fill:#a4abad;}.cls-151{fill:#359bb5;}.cls-152{fill:#3aaac7;}.cls-153{fill:#868a8c;}.cls-154{fill:#383a3b;}.cls-155{fill:#777b7d;}.cls-156{fill:#575a5c;}.cls-157{fill:#a9b0b3;}.cls-158{fill:#2f8aa1;}.cls-159{fill:#7f8587;}.cls-160{fill:#888d8f;}.cls-161{fill:#919799;}.cls-162{fill:#a89d97;}.cls-163{fill:#7d7570;}.cls-164{fill:#c8bbb3;}.cls-165{fill:#f6c96b;}.cls-166{fill:#fca30b;}.cls-167{fill:#969c9e;}.cls-168{fill:#9e948d;}.cls-169{fill:#e8dacf;}.cls-170{fill:#282f39;}.cls-171{filter:url(#luminosity-noclip);}</style><filter id="luminosity-noclip" x="94.1" y="-9443.76" width="20.93" height="32766" filterUnits="userSpaceOnUse" color-interpolation-filters="sRGB"><feFlood flood-color="#fff" result="bg"/><feBlend in="SourceGraphic" in2="bg"/></filter><mask id="mask" x="94.1" y="-9443.76" width="20.93" height="32766" maskUnits="userSpaceOnUse"><g class="cls-171"/></mask><linearGradient id="Fade_to_Black_8" x1="69.01" y1="141.41" x2="130.64" y2="141.41" gradientUnits="userSpaceOnUse"><stop offset="0" stop-color="#fff"/><stop offset="0.06" stop-color="#dadada"/><stop offset="0.16" stop-color="#a7a7a7"/><stop offset="0.26" stop-color="#7b7b7b"/><stop offset="0.37" stop-color="#555"/><stop offset="0.48" stop-color="#363636"/><stop offset="0.59" stop-color="#1e1e1e"/><stop offset="0.71" stop-color="#0d0d0d"/><stop offset="0.84" stop-color="#030303"/><stop offset="1"/></linearGradient><linearGradient id="linear-gradient" x1="73.92" y1="47.06" x2="236.74" y2="47.06" gradientUnits="userSpaceOnUse"><stop offset="0" stop-color="#ce3045"/><stop offset="0.23" stop-color="#e54654"/><stop offset="0.41" stop-color="#f0515b"/><stop offset="0.46" stop-color="#e74955"/><stop offset="0.59" stop-color="#d93b4c"/><stop offset="0.75" stop-color="#d13247"/><stop offset="1" stop-color="#ce3045"/></linearGradient><linearGradient id="linear-gradient-2" x1="73.92" y1="105.87" x2="115.01" y2="105.87" xlink:href="#linear-gradient"/><linearGradient id="linear-gradient-3" x1="142.46" y1="134.68" x2="163.16" y2="134.68" gradientUnits="userSpaceOnUse"><stop offset="0" stop-color="#060407"/><stop offset="0.02" stop-color="#0b090c"/><stop offset="0.18" stop-color="#282729"/><stop offset="0.35" stop-color="#3e3e40"/><stop offset="0.54" stop-color="#4e4e50"/><stop offset="0.74" stop-color="#57585a"/><stop offset="1" stop-color="#5a5b5d"/></linearGradient><clipPath id="clip-path"><path class="cls-3" d="M166.24,130.21c0,6.46-4.53,14.31-10.12,17.54-2.69,1.55-5.13,1.75-6.94.83l-.05,0-.25-.14-.06,0c-1.75-1.08-2.83-3.32-2.83-6.47,0-6.45,4.53-14.31,10.13-17.54,2.73-1.58,5.22-1.76,7-.78l0,0a.83.83,0,0,1,.16.09C165.14,124.77,166.24,127,166.24,130.21Z"/></clipPath><radialGradient id="Pewter_Radial" cx="156.12" cy="136.06" r="7.41" gradientUnits="userSpaceOnUse"><stop offset="0.01" stop-color="#aeb0b7"/><stop offset="0.32" stop-color="#aaaaa8"/><stop offset="0.35" stop-color="#a9a9a6"/><stop offset="0.5" stop-color="#9a9e9e"/><stop offset="0.67" stop-color="#838c92"/><stop offset="1" stop-color="#657076"/></radialGradient><linearGradient id="linear-gradient-4" x1="206.9" y1="97.58" x2="227.6" y2="97.58" xlink:href="#linear-gradient-3"/><clipPath id="clip-path-2"><path class="cls-3" d="M230.68,93.11c0,6.46-4.53,14.32-10.12,17.54-2.69,1.55-5.13,1.75-6.94.83l-.05,0-.25-.15-.06,0c-1.75-1.09-2.83-3.32-2.83-6.47,0-6.46,4.53-14.31,10.13-17.54,2.73-1.58,5.22-1.76,7-.78l0,0,.16.1C229.58,87.68,230.68,89.93,230.68,93.11Z"/></clipPath><radialGradient id="Pewter_Radial-2" cx="220.56" cy="98.96" r="7.41" xlink:href="#Pewter_Radial"/><linearGradient id="linear-gradient-5" x1="120.15" y1="147.56" x2="140.84" y2="147.56" xlink:href="#linear-gradient-3"/><clipPath id="clip-path-3"><path class="cls-3" d="M143.93,143.09c0,6.46-4.53,14.31-10.13,17.54-2.68,1.55-5.12,1.75-6.93.83l-.05,0-.26-.14,0,0c-1.76-1.08-2.83-3.32-2.83-6.47,0-6.46,4.53-14.31,10.12-17.54,2.74-1.58,5.22-1.76,7-.78l0,0a.83.83,0,0,1,.16.09C142.83,137.65,143.93,139.91,143.93,143.09Z"/></clipPath><radialGradient id="Pewter_Radial-3" cx="133.8" cy="148.94" r="7.41" xlink:href="#Pewter_Radial"/><linearGradient id="Blue" x1="73.93" y1="138.79" x2="115.03" y2="138.79" gradientUnits="userSpaceOnUse"><stop offset="0" stop-color="#2bc4f3"/><stop offset="0.5" stop-color="#00aeee"/><stop offset="1" stop-color="#0095da"/></linearGradient><filter id="luminosity-noclip-2" x="94.1" y="129.36" width="20.93" height="24.1" filterUnits="userSpaceOnUse" color-interpolation-filters="sRGB"><feFlood flood-color="#fff" result="bg"/><feBlend in="SourceGraphic" in2="bg"/></filter><mask id="mask-2" x="94.1" y="129.36" width="20.93" height="24.1" maskUnits="userSpaceOnUse"><g class="cls-1"><polygon class="cls-2" points="94.1 129.36 94.17 153.46 115.03 141.42 94.1 129.36"/></g></mask><linearGradient id="Fade_to_Black_1" x1="69.01" y1="141.41" x2="130.64" y2="141.41" gradientUnits="userSpaceOnUse"><stop offset="0" stop-color="#231f20"/><stop offset="0.09" stop-color="#231f20"/><stop offset="1" stop-color="#231f20"/></linearGradient></defs><title>Asset 1</title><g id="Layer_2" data-name="Layer 2"><g id="Layer_1-2" data-name="Layer 1"><polygon class="cls-4" points="115.01 94.12 236.74 23.72 195.65 0 73.92 70.28 115.01 94.12"/><polygon class="cls-5" points="115.01 94.12 115.01 141.45 73.92 117.89 73.92 70.28 115.01 94.12"/><path class="cls-6" d="M167.26,129.62l-46.4,26.79c.12-7.35,5.27-16.18,11.6-19.83l23.21-13.4C162,119.53,167.14,122.41,167.26,129.62Z"/><path class="cls-7" d="M231.63,92.46l-23.2,13.39c.12-7.34,5.27-16.17,11.6-19.83S231.51,85.25,231.63,92.46Z"/><polygon class="cls-8" points="236.74 71.28 115.01 141.45 115.01 94.12 236.74 23.84 236.74 71.28"/><path class="cls-9" d="M163.16,123.58c-1.82-1-4.31-.8-7,.78-5.6,3.23-10.13,11.09-10.13,17.54,0,3.15,1.08,5.39,2.83,6.47l-3.18-1.8-.35-.2,0,0h0c-1.72-1.1-2.78-3.32-2.78-6.44,0-6.46,4.54-14.31,10.13-17.54a9.17,9.17,0,0,1,4.52-1.38,5.24,5.24,0,0,1,2.49.6Z"/><g class="cls-10"><rect class="cls-11" x="145.99" y="122.6" width="20.25" height="26.9"/><path class="cls-11" d="M163.37,123.78c4.32,2.55,4.58,10.12.57,16.9s-10.76,10.2-15.08,7.65-4.57-10.12-.57-16.9S159.05,121.23,163.37,123.78Z"/><path class="cls-12" d="M163.34,123.84c4.3,2.54,4.55,10.07.56,16.82s-10.7,10.15-15,7.61-4.56-10.07-.57-16.82S159,121.3,163.34,123.84Z"/><path class="cls-13" d="M163.31,123.89c4.28,2.53,4.53,10,.56,16.75s-10.66,10.11-14.94,7.58-4.53-10-.56-16.75S159,121.36,163.31,123.89Z"/><path class="cls-14" d="M163.27,124c4.26,2.52,4.51,10,.56,16.66s-10.61,10.07-14.87,7.55-4.51-10-.56-16.67S159,121.43,163.27,124Z"/><path class="cls-15" d="M163.24,124c4.24,2.5,4.49,9.93.56,16.58s-10.56,10-14.8,7.51-4.49-9.93-.56-16.58S159,121.5,163.24,124Z"/><path class="cls-16" d="M163.21,124.06c4.22,2.5,4.46,9.89.55,16.51s-10.51,10-14.73,7.48-4.47-9.89-.56-16.51S159,121.57,163.21,124.06Z"/><path class="cls-17" d="M163.17,124.12c4.2,2.48,4.45,9.84.55,16.43s-10.46,9.92-14.66,7.44-4.45-9.84-.55-16.43S159,121.63,163.17,124.12Z"/><path class="cls-18" d="M163.14,124.17c4.18,2.48,4.43,9.8.55,16.36s-10.41,9.88-14.59,7.4-4.43-9.79-.55-16.35S159,121.7,163.14,124.17Z"/><path class="cls-19" d="M163.11,124.23c4.16,2.46,4.4,9.75.54,16.28s-10.36,9.83-14.52,7.37-4.41-9.75-.55-16.28S158.94,121.77,163.11,124.23Z"/><path class="cls-20" d="M163.07,124.29c4.14,2.44,4.39,9.7.55,16.2s-10.32,9.78-14.46,7.33-4.38-9.7-.54-16.2S158.93,121.84,163.07,124.29Z"/><ellipse class="cls-21" cx="156.12" cy="136.05" rx="13.6" ry="8.67" transform="matrix(0.51, -0.86, 0.86, 0.51, -40.44, 201.22)"/><path class="cls-22" d="M163,124.4c4.1,2.42,4.34,9.61.53,16s-10.21,9.69-14.31,7.27-4.35-9.61-.54-16.05S158.9,122,163,124.4Z"/><path class="cls-23" d="M163,124.46c4.08,2.41,4.33,9.56.54,16s-10.17,9.65-14.25,7.23-4.32-9.56-.54-16S158.89,122,163,124.46Z"/><path class="cls-24" d="M162.94,124.51c4.06,2.4,4.3,9.52.53,15.89s-10.11,9.6-14.18,7.2-4.3-9.52-.53-15.89S158.88,122.11,162.94,124.51Z"/><path class="cls-25" d="M162.91,124.57c4,2.39,4.28,9.47.53,15.81s-10.07,9.55-14.11,7.16-4.28-9.47-.53-15.81S158.86,122.18,162.91,124.57Z"/><path class="cls-26" d="M162.87,124.62c4,2.38,4.26,9.43.53,15.74s-10,9.5-14,7.12-4.26-9.42-.53-15.73S158.85,122.25,162.87,124.62Z"/><path class="cls-27" d="M162.84,124.68c4,2.37,4.24,9.38.53,15.66s-10,9.45-14,7.09-4.23-9.38-.52-15.66S158.84,122.31,162.84,124.68Z"/><path class="cls-28" d="M162.81,124.74c4,2.35,4.21,9.33.52,15.58s-9.92,9.41-13.9,7.05-4.22-9.33-.53-15.58S158.82,122.38,162.81,124.74Z"/><ellipse class="cls-29" cx="156.12" cy="136.05" rx="13.08" ry="8.34" transform="translate(-40.44 201.23) rotate(-59.42)"/><path class="cls-30" d="M162.74,124.85c3.94,2.33,4.18,9.24.52,15.42s-9.82,9.32-13.77,7-4.17-9.24-.51-15.43S158.8,122.52,162.74,124.85Z"/><path class="cls-31" d="M162.71,124.91c3.92,2.31,4.15,9.19.51,15.34s-9.77,9.27-13.69,6.95-4.16-9.19-.52-15.35S158.78,122.59,162.71,124.91Z"/><path class="cls-32" d="M162.67,125c3.91,2.31,4.14,9.15.52,15.27s-9.73,9.22-13.63,6.92-4.13-9.15-.51-15.27S158.77,122.65,162.67,125Z"/><path class="cls-33" d="M162.64,125c3.88,2.29,4.11,9.1.51,15.19s-9.67,9.18-13.56,6.88-4.11-9.1-.51-15.19S158.76,122.72,162.64,125Z"/><path class="cls-34" d="M162.61,125.07c3.86,2.29,4.09,9.06.5,15.12s-9.62,9.13-13.48,6.84-4.1-9.05-.51-15.11S158.74,122.79,162.61,125.07Z"/><path class="cls-35" d="M162.57,125.13c3.85,2.27,4.08,9,.51,15s-9.58,9.08-13.42,6.81-4.07-9-.51-15S158.73,122.86,162.57,125.13Z"/><path class="cls-36" d="M162.54,125.19c3.83,2.26,4.05,9,.5,15s-9.52,9-13.35,6.77-4.05-9-.5-15S158.72,122.93,162.54,125.19Z"/><path class="cls-37" d="M162.51,125.24c3.8,2.25,4,8.92.5,14.89s-9.48,9-13.28,6.74-4-8.92-.5-14.89S158.7,123,162.51,125.24Z"/><path class="cls-38" d="M162.47,125.3c3.79,2.24,4,8.87.5,14.81s-9.42,8.94-13.21,6.7-4-8.87-.5-14.81S158.69,123.06,162.47,125.3Z"/><path class="cls-39" d="M162.44,125.35c3.77,2.23,4,8.83.5,14.73s-9.38,8.9-13.15,6.67-4-8.82-.49-14.73S158.68,123.13,162.44,125.35Z"/><path class="cls-40" d="M162.41,125.41c3.74,2.22,4,8.78.49,14.65s-9.33,8.85-13.07,6.64-4-8.78-.5-14.65S158.66,123.2,162.41,125.41Z"/><path class="cls-41" d="M162.37,125.47c3.73,2.2,3.95,8.73.49,14.57s-9.27,8.8-13,6.6-4-8.73-.49-14.57S158.65,123.26,162.37,125.47Z"/><path class="cls-42" d="M162.34,125.52c3.71,2.19,3.93,8.69.49,14.5s-9.23,8.76-12.94,6.56-3.92-8.68-.48-14.49S158.63,123.33,162.34,125.52Z"/><path class="cls-43" d="M162.31,125.58c3.68,2.18,3.9,8.63.48,14.42s-9.18,8.71-12.86,6.53-3.91-8.64-.49-14.42S158.62,123.4,162.31,125.58Z"/><path class="cls-44" d="M162.27,125.64c3.67,2.16,3.89,8.59.49,14.34s-9.13,8.66-12.8,6.49-3.88-8.59-.48-14.34S158.61,123.47,162.27,125.64Z"/><path class="cls-45" d="M162.24,125.69c3.65,2.16,3.86,8.54.48,14.27s-9.08,8.61-12.73,6.46-3.86-8.55-.48-14.27S158.59,123.54,162.24,125.69Z"/><path class="cls-46" d="M162.21,125.75c3.63,2.14,3.84,8.49.47,14.19s-9,8.56-12.65,6.42-3.85-8.5-.48-14.19S158.58,123.6,162.21,125.75Z"/><path class="cls-47" d="M162.17,125.8c3.61,2.14,3.82,8.45.48,14.12s-9,8.52-12.59,6.38-3.82-8.45-.48-14.11S158.57,123.67,162.17,125.8Z"/><path class="cls-48" d="M162.14,125.86c3.59,2.12,3.8,8.4.47,14s-8.93,8.48-12.52,6.36-3.8-8.41-.47-14S158.55,123.74,162.14,125.86Z"/><path class="cls-49" d="M162.11,125.92c3.57,2.11,3.78,8.35.47,14s-8.89,8.43-12.46,6.32-3.77-8.36-.46-13.95S158.54,123.81,162.11,125.92Z"/><path class="cls-50" d="M162.08,126c3.54,2.1,3.75,8.31.46,13.88s-8.83,8.38-12.38,6.29-3.76-8.32-.47-13.88S158.53,123.88,162.08,126Z"/><path class="cls-51" d="M162,126c3.53,2.08,3.74,8.26.47,13.8s-8.79,8.33-12.32,6.25-3.73-8.27-.46-13.8S158.51,123.94,162,126Z"/><path class="cls-52" d="M162,126.09c3.51,2.07,3.71,8.21.46,13.72s-8.74,8.29-12.25,6.21-3.71-8.22-.46-13.72S158.5,124,162,126.09Z"/><path class="cls-53" d="M162,126.14c3.48,2.06,3.69,8.17.45,13.65S153.75,148,150.26,146s-3.7-8.18-.46-13.65S158.49,124.08,162,126.14Z"/><path class="cls-54" d="M161.94,126.2c3.47,2,3.68,8.12.46,13.57s-8.64,8.19-12.11,6.14-3.67-8.13-.45-13.57S158.47,124.15,161.94,126.2Z"/><path class="cls-55" d="M161.91,126.25c3.45,2,3.65,8.08.45,13.5s-8.59,8.14-12,6.1-3.65-8.08-.45-13.49S158.46,124.22,161.91,126.25Z"/><path class="cls-56" d="M161.88,126.31c3.43,2,3.63,8,.45,13.41s-8.54,8.11-12,6.08-3.63-8-.45-13.42S158.45,124.28,161.88,126.31Z"/><ellipse class="cls-57" cx="156.12" cy="136.05" rx="11.25" ry="7.17" transform="matrix(0.51, -0.86, 0.86, 0.51, -40.44, 201.22)"/><path class="cls-58" d="M161.81,126.42c3.39,2,3.59,7.94.44,13.26s-8.44,8-11.83,6-3.59-7.94-.44-13.26S158.42,124.42,161.81,126.42Z"/><path class="cls-59" d="M161.78,126.48c3.37,2,3.56,7.89.44,13.18s-8.39,8-11.76,6-3.57-7.89-.45-13.18S158.41,124.49,161.78,126.48Z"/><path class="cls-60" d="M161.74,126.54c3.35,2,3.55,7.84.44,13.1s-8.34,7.91-11.69,5.93-3.55-7.84-.44-13.1S158.39,124.56,161.74,126.54Z"/><path class="cls-61" d="M161.71,126.59c3.33,2,3.53,7.8.44,13s-8.3,7.87-11.63,5.9-3.52-7.8-.43-13S158.38,124.62,161.71,126.59Z"/><path class="cls-62" d="M161.68,126.65c3.31,1.95,3.5,7.75.43,12.95s-8.24,7.82-11.55,5.86-3.51-7.75-.44-13S158.37,124.69,161.68,126.65Z"/><path class="cls-63" d="M161.64,126.7c3.29,2,3.49,7.71.44,12.88s-8.2,7.77-11.49,5.82-3.48-7.7-.43-12.87S158.35,124.76,161.64,126.7Z"/><path class="cls-64" d="M161.61,126.76c3.27,1.93,3.46,7.66.43,12.8s-8.15,7.72-11.42,5.79-3.46-7.66-.43-12.8S158.34,124.83,161.61,126.76Z"/><path class="cls-65" d="M161.58,126.82c3.25,1.92,3.44,7.61.42,12.71s-8.09,7.68-11.34,5.76-3.45-7.61-.43-12.72S158.33,124.89,161.58,126.82Z"/><path class="cls-65" d="M161.54,126.87c3.24,1.91,3.43,7.57.43,12.64s-8.05,7.64-11.28,5.73-3.42-7.57-.42-12.64S158.31,125,161.54,126.87Z"/><path class="cls-66" d="M161.51,126.93c3.21,1.9,3.4,7.52.42,12.56s-8,7.59-11.21,5.69-3.4-7.52-.42-12.56S158.3,125,161.51,126.93Z"/><path class="cls-66" d="M161.48,127c3.19,1.88,3.38,7.47.42,12.48s-8,7.54-11.14,5.65-3.38-7.47-.42-12.48S158.29,125.1,161.48,127Z"/><path class="cls-63" d="M161.42,127.08c3.16,1.87,3.34,7.4.41,12.35s-7.86,7.46-11,5.59-3.34-7.39-.41-12.34S158.26,125.22,161.42,127.08Z"/><path class="cls-60" d="M161.36,127.18c3.12,1.85,3.31,7.32.41,12.22s-7.77,7.37-10.9,5.53-3.3-7.32-.41-12.22S158.24,125.34,161.36,127.18Z"/><path class="cls-67" d="M161.3,127.28c3.09,1.83,3.27,7.23.41,12.08s-7.69,7.29-10.78,5.47-3.27-7.24-.4-12.08S158.21,125.46,161.3,127.28Z"/><path class="cls-54" d="M161.24,127.38c3.06,1.8,3.24,7.15.41,11.94S154,146.53,151,144.73s-3.23-7.15-.4-11.94S158.19,125.57,161.24,127.38Z"/><path class="cls-68" d="M161.19,127.48c3,1.78,3.19,7.07.39,11.8s-7.51,7.13-10.53,5.35-3.2-7.07-.4-11.81S158.17,125.69,161.19,127.48Z"/><path class="cls-69" d="M161.13,127.58c3,1.76,3.16,7,.39,11.67s-7.43,7.05-10.41,5.28-3.16-7-.4-11.67S158.14,125.81,161.13,127.58Z"/><ellipse class="cls-70" cx="156.12" cy="136.05" rx="9.73" ry="6.2" transform="translate(-40.44 201.23) rotate(-59.42)"/><path class="cls-71" d="M161,127.77c2.92,1.73,3.09,6.83.38,11.4s-7.25,6.89-10.17,5.16-3.08-6.82-.38-11.4S158.1,126.05,161,127.77Z"/><path class="cls-72" d="M161,127.87c2.88,1.7,3.05,6.75.38,11.27s-7.17,6.8-10.05,5.1-3.05-6.75-.38-11.27S158.07,126.17,161,127.87Z"/><path class="cls-73" d="M160.89,128c2.85,1.68,3,6.66.38,11.13s-7.09,6.72-9.93,5-3-6.67-.37-11.13S158.05,126.29,160.89,128Z"/><path class="cls-74" d="M160.84,128.07c2.81,1.66,3,6.58.37,11s-7,6.64-9.81,5-3-6.58-.37-11S158,126.41,160.84,128.07Z"/><path class="cls-75" d="M160.78,128.17c2.77,1.64,2.94,6.5.36,10.85s-6.91,6.56-9.68,4.92-2.94-6.5-.37-10.86S158,126.53,160.78,128.17Z"/><path class="cls-76" d="M160.72,128.27c2.74,1.62,2.9,6.42.36,10.72s-6.83,6.47-9.57,4.85-2.9-6.42-.36-10.72S158,126.65,160.72,128.27Z"/><path class="cls-77" d="M160.66,128.37c2.71,1.59,2.87,6.33.36,10.58s-6.74,6.39-9.45,4.79-2.86-6.34-.35-10.58S158,126.77,160.66,128.37Z"/><path class="cls-78" d="M160.6,128.46c2.67,1.58,2.83,6.26.35,10.45s-6.65,6.31-9.32,4.73-2.83-6.25-.35-10.45S157.93,126.88,160.6,128.46Z"/><path class="cls-28" d="M160.54,128.56c2.64,1.56,2.8,6.18.35,10.32s-6.56,6.22-9.2,4.67-2.79-6.18-.35-10.32S157.91,127,160.54,128.56Z"/><path class="cls-26" d="M160.49,128.66c2.6,1.54,2.75,6.1.34,10.18s-6.48,6.15-9.08,4.61-2.76-6.1-.34-10.18S157.88,127.12,160.49,128.66Z"/><path class="cls-79" d="M160.43,128.76c2.57,1.52,2.72,6,.34,10s-6.4,6.07-9,4.55-2.72-6-.34-10S157.86,127.24,160.43,128.76Z"/><path class="cls-80" d="M160.37,128.86c2.53,1.5,2.68,5.93.33,9.9s-6.3,6-8.84,4.49-2.68-5.93-.33-9.91S157.84,127.36,160.37,128.86Z"/><path class="cls-81" d="M160.31,129c2.5,1.47,2.65,5.85.33,9.77s-6.22,5.9-8.72,4.42-2.64-5.85-.33-9.77S157.81,127.48,160.31,129Z"/><path class="cls-82" d="M160.25,129.06c2.47,1.45,2.61,5.77.33,9.63s-6.14,5.82-8.6,4.36-2.61-5.77-.32-9.63S157.79,127.6,160.25,129.06Z"/><path class="cls-83" d="M160.2,129.15c2.42,1.44,2.57,5.69.31,9.5s-6,5.74-8.47,4.3-2.57-5.68-.32-9.5S157.77,127.72,160.2,129.15Z"/><path class="cls-84" d="M160.14,129.25c2.39,1.42,2.53,5.61.31,9.37s-6,5.65-8.35,4.24-2.54-5.61-.32-9.37S157.74,127.84,160.14,129.25Z"/><path class="cls-15" d="M160.08,129.35c2.36,1.4,2.5,5.53.31,9.23s-5.88,5.57-8.24,4.18-2.49-5.53-.31-9.23S157.72,128,160.08,129.35Z"/><path class="cls-85" d="M160,129.45c2.33,1.37,2.46,5.44.31,9.09s-5.79,5.49-8.12,4.12-2.46-5.45-.3-9.09S157.7,128.08,160,129.45Z"/><path class="cls-86" d="M160,129.55c2.29,1.35,2.43,5.36.3,8.95s-5.7,5.41-8,4.06-2.42-5.36-.3-9S157.67,128.19,160,129.55Z"/><path class="cls-87" d="M159.9,129.65c2.26,1.33,2.39,5.28.3,8.82s-5.62,5.32-7.87,4-2.39-5.28-.3-8.82S157.65,128.31,159.9,129.65Z"/><path class="cls-88" d="M159.85,129.75c2.22,1.31,2.35,5.2.29,8.68s-5.53,5.25-7.75,3.93-2.35-5.2-.29-8.68S157.63,128.43,159.85,129.75Z"/><path class="cls-89" d="M159.79,129.84c2.18,1.3,2.31,5.12.28,8.55s-5.44,5.17-7.62,3.87-2.32-5.12-.29-8.55S157.6,128.55,159.79,129.84Z"/><path class="cls-90" d="M159.73,129.94c2.15,1.27,2.28,5,.28,8.42s-5.35,5.08-7.51,3.81-2.27-5-.28-8.42S157.58,128.67,159.73,129.94Z"/><path class="cls-91" d="M159.67,130c2.12,1.25,2.24,5,.28,8.28s-5.27,5-7.39,3.75-2.24-5-.28-8.28S157.55,128.79,159.67,130Z"/><path class="cls-92" d="M159.61,130.14c2.08,1.23,2.21,4.88.28,8.14s-5.19,4.92-7.27,3.69-2.2-4.88-.27-8.14S157.53,128.91,159.61,130.14Z"/><ellipse class="cls-93" cx="156.12" cy="136.05" rx="6.76" ry="4.31" transform="translate(-40.45 201.22) rotate(-59.41)"/><path class="cls-94" d="M159.5,130.34c2,1.19,2.13,4.71.26,7.87s-5,4.75-7,3.56-2.13-4.71-.27-7.87S157.48,129.15,159.5,130.34Z"/><path class="cls-95" d="M159.44,130.44c2,1.16,2.09,4.63.26,7.73s-4.93,4.67-6.9,3.5-2.1-4.63-.26-7.73S157.46,129.27,159.44,130.44Z"/><path class="cls-96" d="M159.38,130.53c1.94,1.15,2.06,4.55.26,7.6s-4.84,4.59-6.79,3.44-2-4.55-.25-7.6S157.44,129.39,159.38,130.53Z"/><path class="cls-97" d="M159.32,130.63c1.91,1.13,2,4.47.25,7.47s-4.75,4.5-6.66,3.38-2-4.47-.25-7.47S157.41,129.5,159.32,130.63Z"/><path class="cls-98" d="M159.26,130.73c1.88,1.11,2,4.39.25,7.33s-4.67,4.42-6.54,3.32-2-4.39-.25-7.33S157.39,129.62,159.26,130.73Z"/><path class="cls-99" d="M159.2,130.83c1.84,1.09,2,4.31.25,7.19s-4.58,4.35-6.42,3.26-1.95-4.31-.24-7.19S157.37,129.74,159.2,130.83Z"/><path class="cls-100" d="M159.15,130.93c1.8,1.06,1.91,4.22.23,7.06s-4.49,4.26-6.29,3.19-1.91-4.23-.24-7.06S157.34,129.86,159.15,130.93Z"/><path class="cls-101" d="M159.09,131c1.77,1,1.87,4.14.23,6.92s-4.41,4.18-6.17,3.13-1.88-4.14-.24-6.92S157.32,130,159.09,131Z"/><path class="cls-102" d="M159,131.13c1.73,1,1.84,4.06.23,6.78s-4.32,4.1-6.06,3.07-1.83-4.06-.22-6.78S157.3,130.1,159,131.13Z"/><path class="cls-103" d="M159,131.22c1.7,1,1.8,4,.23,6.65s-4.24,4-5.94,3-1.8-4-.22-6.65S157.27,130.22,159,131.22Z"/><path class="cls-104" d="M158.91,131.32c1.67,1,1.77,3.9.22,6.52s-4.14,3.93-5.81,2.95-1.76-3.91-.22-6.52S157.25,130.34,158.91,131.32Z"/><path class="cls-105" d="M158.86,131.42c1.63,1,1.72,3.82.21,6.38s-4.06,3.85-5.69,2.89-1.73-3.82-.22-6.38S157.22,130.46,158.86,131.42Z"/><path class="cls-106" d="M158.8,131.52c1.59.94,1.69,3.74.21,6.24s-4,3.77-5.57,2.83-1.69-3.74-.21-6.24S157.2,130.58,158.8,131.52Z"/><path class="cls-107" d="M158.74,131.62c1.56.92,1.65,3.66.2,6.11s-3.88,3.68-5.45,2.76-1.65-3.66-.2-6.11S157.18,130.7,158.74,131.62Z"/><path class="cls-108" d="M158.68,131.72c1.53.9,1.62,3.57.2,6s-3.8,3.6-5.33,2.7-1.61-3.57-.2-6S157.15,130.81,158.68,131.72Z"/><path class="cls-109" d="M158.62,131.82c1.49.88,1.58,3.49.2,5.83s-3.72,3.53-5.21,2.64-1.58-3.49-.19-5.83S157.13,130.93,158.62,131.82Z"/><path class="cls-110" d="M158.56,131.91c1.46.87,1.55,3.42.2,5.7s-3.63,3.45-5.09,2.58-1.54-3.41-.19-5.7S157.11,131.05,158.56,131.91Z"/><path class="cls-111" d="M158.51,132c1.42.84,1.5,3.33.18,5.57s-3.54,3.36-5,2.52-1.51-3.34-.19-5.57S157.08,131.17,158.51,132Z"/><path class="cls-112" d="M158.45,132.11c1.39.82,1.47,3.25.18,5.43s-3.46,3.28-4.84,2.46-1.47-3.25-.19-5.43S157.06,131.29,158.45,132.11Z"/><path class="cls-113" d="M158.39,132.21c1.35.8,1.43,3.17.18,5.29s-3.37,3.2-4.73,2.4-1.43-3.17-.17-5.29S157,131.41,158.39,132.21Z"/><path class="cls-114" d="M158.33,132.31c1.32.78,1.4,3.09.17,5.16s-3.28,3.11-4.6,2.33-1.39-3.09-.17-5.16S157,131.53,158.33,132.31Z"/><path class="cls-115" d="M158.27,132.41c1.29.76,1.36,3,.17,5s-3.2,3-4.48,2.27-1.36-3-.17-5S157,131.65,158.27,132.41Z"/><path class="cls-115" d="M158.21,132.51c1.25.73,1.33,2.92.17,4.88s-3.11,3-4.36,2.21-1.32-2.92-.16-4.88S157,131.77,158.21,132.51Z"/><path class="cls-116" d="M158.16,132.6c1.21.72,1.28,2.85.16,4.75s-3,2.87-4.24,2.15-1.29-2.84-.16-4.75S156.94,131.89,158.16,132.6Z"/><path class="cls-116" d="M158.1,132.7c1.18.7,1.25,2.77.15,4.62s-2.93,2.78-4.11,2.09-1.25-2.77-.16-4.62S156.92,132,158.1,132.7Z"/><path class="cls-117" d="M158,132.8c1.14.68,1.21,2.68.15,4.48s-2.85,2.7-4,2-1.21-2.68-.15-4.48S156.89,132.12,158,132.8Z"/><path class="cls-117" d="M158,132.9c1.11.66,1.18,2.6.15,4.34s-2.77,2.62-3.88,2-1.17-2.6-.14-4.34S156.87,132.24,158,132.9Z"/><path class="cls-118" d="M157.92,133c1.08.63,1.14,2.52.14,4.21s-2.67,2.54-3.75,1.9-1.14-2.52-.14-4.21S156.85,132.36,157.92,133Z"/><path class="cls-119" d="M157.86,133.1c1,.61,1.11,2.43.14,4.07s-2.59,2.46-3.63,1.84-1.1-2.44-.14-4.07S156.82,132.48,157.86,133.1Z"/><path class="cls-119" d="M157.81,133.2c1,.59,1.06,2.35.13,3.93s-2.51,2.38-3.51,1.78-1.07-2.35-.14-3.93S156.8,132.6,157.81,133.2Z"/><path class="cls-120" d="M157.75,133.29c1,.58,1,2.28.13,3.8s-2.42,2.3-3.39,1.72-1-2.27-.13-3.8S156.78,132.72,157.75,133.29Z"/><path class="cls-120" d="M157.69,133.39c.94.56,1,2.2.12,3.67s-2.33,2.21-3.27,1.66-1-2.2-.12-3.67S156.75,132.84,157.69,133.39Z"/><path class="cls-120" d="M157.63,133.49c.9.53,1,2.11.12,3.53s-2.25,2.13-3.15,1.6-.95-2.12-.12-3.53S156.73,133,157.63,133.49Z"/><path class="cls-121" d="M157.57,133.59c.87.51.92,2,.12,3.39s-2.16,2.05-3,1.54-.92-2-.11-3.39S156.71,133.08,157.57,133.59Z"/><path class="cls-121" d="M157.52,133.69c.83.49.88,1.95.1,3.26s-2.07,2-2.9,1.47-.88-1.95-.11-3.26S156.68,133.2,157.52,133.69Z"/><path class="cls-121" d="M157.46,133.79c.8.47.84,1.87.1,3.12s-2,1.88-2.78,1.41-.85-1.87-.11-3.12S156.66,133.32,157.46,133.79Z"/><path class="cls-121" d="M157.4,133.89c.76.45.81,1.78.1,3s-1.9,1.8-2.67,1.35-.8-1.79-.1-3S156.64,133.43,157.4,133.89Z"/><path class="cls-122" d="M157.34,134c.73.43.77,1.71.1,2.85s-1.82,1.72-2.55,1.29-.77-1.7-.09-2.85S156.61,133.55,157.34,134Z"/><path class="cls-123" d="M157.28,134.08c.7.41.74,1.63.09,2.72s-1.72,1.64-2.42,1.23-.73-1.63-.09-2.72S156.59,133.67,157.28,134.08Z"/><path class="cls-123" d="M157.22,134.18c.66.39.7,1.55.09,2.58s-1.64,1.56-2.3,1.17-.7-1.55-.09-2.58S156.56,133.79,157.22,134.18Z"/><path class="cls-123" d="M157.17,134.28c.62.37.66,1.46.08,2.44s-1.56,1.48-2.18,1.11-.66-1.46-.08-2.44S156.54,133.91,157.17,134.28Z"/><path class="cls-123" d="M157.11,134.38c.59.35.62,1.38.07,2.31s-1.46,1.39-2.05,1-.63-1.38-.08-2.31S156.52,134,157.11,134.38Z"/><path class="cls-123" d="M157.05,134.48c.55.33.59,1.3.07,2.17s-1.38,1.31-1.94,1-.58-1.3-.07-2.17S156.49,134.15,157.05,134.48Z"/><path class="cls-123" d="M157,134.58c.52.3.55,1.21.07,2s-1.3,1.23-1.82.92-.55-1.22-.07-2S156.47,134.27,157,134.58Z"/><path class="cls-124" d="M156.93,134.67c.49.29.52,1.14.07,1.9s-1.21,1.15-1.7.86-.51-1.13-.06-1.9S156.45,134.39,156.93,134.67Z"/><path class="cls-124" d="M156.87,134.77c.46.27.48,1.06.06,1.77s-1.12,1.06-1.57.8-.48-1.06-.06-1.77S156.42,134.51,156.87,134.77Z"/><path class="cls-124" d="M156.82,134.87c.41.25.44,1,.05,1.63s-1,1-1.45.74-.44-1-.06-1.63S156.4,134.63,156.82,134.87Z"/><path class="cls-124" d="M156.76,135c.38.23.4.89.05,1.49s-.95.9-1.33.68-.41-.9,0-1.49S156.38,134.74,156.76,135Z"/><path class="cls-124" d="M156.7,135.07c.35.2.37.81,0,1.36s-.86.81-1.21.61-.36-.81,0-1.36S156.35,134.86,156.7,135.07Z"/><path class="cls-124" d="M156.64,135.17c.31.18.33.73,0,1.22s-.78.74-1.09.55-.33-.73,0-1.22S156.33,135,156.64,135.17Z"/><path class="cls-124" d="M156.58,135.27c.28.16.3.65,0,1.08s-.69.66-1,.49-.29-.65,0-1.08S156.31,135.1,156.58,135.27Z"/><path class="cls-124" d="M156.52,135.36c.25.15.26.57,0,.95s-.61.58-.85.43-.26-.56,0-1S156.28,135.22,156.52,135.36Z"/><path class="cls-124" d="M156.47,135.46c.2.13.22.49,0,.82s-.51.49-.72.37-.22-.49,0-.82S156.26,135.34,156.47,135.46Z"/><path class="cls-124" d="M156.41,135.56c.17.1.18.41,0,.68s-.43.41-.6.31-.19-.41,0-.68S156.23,135.46,156.41,135.56Z"/><path class="cls-124" d="M156.35,135.66c.14.08.15.33,0,.54s-.35.33-.49.25-.14-.33,0-.54S156.21,135.58,156.35,135.66Z"/><path class="cls-124" d="M156.29,135.76c.11.06.11.24,0,.41s-.26.24-.37.18-.11-.24,0-.41S156.19,135.7,156.29,135.76Z"/><path class="cls-124" d="M156.23,135.86c.07,0,.08.16,0,.27s-.17.16-.24.12-.07-.16,0-.27S156.16,135.82,156.23,135.86Z"/><path class="cls-124" d="M156.17,136s0,.08,0,.13-.09.08-.12.06,0-.08,0-.13S156.14,135.93,156.17,136Z"/></g><path class="cls-125" d="M162.53,132.35a14.17,14.17,0,0,1-6.41,11.11c-3.55,2-6.42.39-6.42-3.7a14.16,14.16,0,0,1,6.42-11.11C159.66,126.6,162.53,128.26,162.53,132.35Z"/><path class="cls-126" d="M159.15,134.3a6.72,6.72,0,0,1-3,5.26c-1.68,1-3,.18-3-1.75a6.71,6.71,0,0,1,3-5.26C157.79,131.58,159.15,132.37,159.15,134.3Z"/><path class="cls-127" d="M227.6,86.49c-1.82-1-4.31-.8-7,.78-5.6,3.23-10.13,11.08-10.13,17.54,0,3.15,1.08,5.38,2.83,6.47l-3.18-1.81a2.43,2.43,0,0,1-.35-.2l0,0h0c-1.72-1.1-2.78-3.32-2.78-6.43,0-6.46,4.54-14.31,10.13-17.54a9.17,9.17,0,0,1,4.52-1.38,5.23,5.23,0,0,1,2.49.59Z"/><g class="cls-128"><rect class="cls-11" x="210.43" y="85.51" width="20.25" height="26.9"/><path class="cls-11" d="M227.73,86.27c4.09,2.31,4.2,9.87.24,16.88s-10.49,10.82-14.58,8.5-4.21-9.87-.25-16.88S223.63,84,227.73,86.27Z"/><path class="cls-12" d="M227.7,86.32c4.07,2.31,4.18,9.83.24,16.81s-10.44,10.77-14.52,8.46-4.19-9.82-.24-16.8S223.62,84,227.7,86.32Z"/><path class="cls-13" d="M227.66,86.38c4.06,2.3,4.17,9.79.25,16.73s-10.4,10.72-14.46,8.43-4.17-9.79-.24-16.73S223.61,84.09,227.66,86.38Z"/><path class="cls-14" d="M227.63,86.44c4,2.28,4.15,9.74.24,16.65s-10.35,10.67-14.39,8.39-4.14-9.74-.24-16.65S223.59,84.16,227.63,86.44Z"/><path class="cls-15" d="M227.6,86.5c4,2.27,4.13,9.69.24,16.57s-10.3,10.62-14.32,8.35-4.13-9.69-.24-16.57S223.58,84.23,227.6,86.5Z"/><path class="cls-16" d="M227.57,86.56c4,2.26,4.1,9.64.23,16.49s-10.25,10.57-14.25,8.31-4.11-9.65-.24-16.5S223.56,84.3,227.57,86.56Z"/><path class="cls-17" d="M227.53,86.62c4,2.25,4.09,9.6.24,16.41s-10.2,10.52-14.19,8.27-4.09-9.6-.23-16.42S223.55,84.36,227.53,86.62Z"/><path class="cls-18" d="M227.5,86.67c4,2.24,4.07,9.56.24,16.35s-10.16,10.46-14.12,8.22-4.07-9.55-.24-16.34S223.53,84.43,227.5,86.67Z"/><path class="cls-19" d="M227.47,86.73c3.94,2.23,4.05,9.51.23,16.27s-10.11,10.42-14,8.19-4.05-9.51-.24-16.27S223.52,84.5,227.47,86.73Z"/><path class="cls-20" d="M227.43,86.79c3.93,2.22,4,9.47.24,16.19s-10.06,10.37-14,8.15-4-9.47-.23-16.19S223.51,84.57,227.43,86.79Z"/><path class="cls-21" d="M227.4,86.85c3.91,2.21,4,9.42.23,16.11s-10,10.32-13.92,8.11-4-9.42-.23-16.11S223.49,84.64,227.4,86.85Z"/><path class="cls-22" d="M227.37,86.91c3.89,2.19,4,9.37.23,16s-10,10.27-13.85,8.07-4-9.37-.23-16S223.48,84.71,227.37,86.91Z"/><path class="cls-23" d="M227.33,87c3.88,2.19,4,9.33.24,16s-9.92,10.22-13.79,8-4-9.33-.23-16S223.46,84.78,227.33,87Z"/><path class="cls-24" d="M227.3,87c3.85,2.18,4,9.29.23,15.88s-9.87,10.17-13.72,8-3.95-9.29-.23-15.88S223.45,84.85,227.3,87Z"/><path class="cls-25" d="M227.27,87.08c3.83,2.17,3.94,9.24.23,15.8s-9.82,10.12-13.65,8-3.94-9.24-.23-15.8S223.44,84.91,227.27,87.08Z"/><path class="cls-26" d="M227.24,87.14c3.81,2.15,3.91,9.19.22,15.72s-9.77,10.07-13.58,7.92-3.92-9.2-.23-15.72S223.42,85,227.24,87.14Z"/><path class="cls-27" d="M227.2,87.2c3.8,2.14,3.9,9.15.23,15.64s-9.72,10-13.52,7.88-3.9-9.15-.23-15.64S223.41,85.05,227.2,87.2Z"/><path class="cls-28" d="M227.17,87.25c3.78,2.14,3.88,9.11.23,15.57s-9.68,10-13.46,7.84-3.87-9.1-.22-15.56S223.39,85.12,227.17,87.25Z"/><path class="cls-29" d="M227.14,87.31c3.76,2.13,3.86,9.06.22,15.49s-9.62,9.93-13.38,7.81-3.86-9.06-.23-15.5S223.38,85.19,227.14,87.31Z"/><path class="cls-30" d="M227.11,87.37c3.73,2.11,3.83,9,.22,15.41s-9.58,9.88-13.32,7.77-3.84-9-.22-15.42S223.37,85.26,227.11,87.37Z"/><path class="cls-31" d="M227.07,87.43c3.72,2.1,3.82,9,.22,15.34s-9.53,9.82-13.25,7.72-3.82-9-.22-15.34S223.35,85.33,227.07,87.43Z"/><path class="cls-32" d="M227,87.49c3.7,2.09,3.8,8.92.22,15.26s-9.48,9.77-13.18,7.68-3.81-8.92-.23-15.26S223.34,85.4,227,87.49Z"/><path class="cls-33" d="M227,87.55c3.68,2.08,3.78,8.87.22,15.18s-9.44,9.72-13.12,7.64-3.78-8.88-.22-15.18S223.32,85.46,227,87.55Z"/><path class="cls-34" d="M227,87.6c3.67,2.07,3.77,8.84.22,15.11s-9.38,9.67-13.05,7.6-3.76-8.83-.22-15.1S223.31,85.53,227,87.6Z"/><path class="cls-35" d="M226.94,87.66c3.65,2.06,3.74,8.79.22,15s-9.34,9.63-13,7.57-3.74-8.79-.21-15S223.3,85.6,226.94,87.66Z"/><path class="cls-36" d="M226.91,87.72c3.62,2,3.72,8.74.21,15s-9.29,9.58-12.91,7.53-3.73-8.74-.22-15S223.28,85.67,226.91,87.72Z"/><path class="cls-37" d="M226.88,87.78c3.6,2,3.7,8.7.21,14.87s-9.24,9.53-12.85,7.49-3.7-8.7-.22-14.87S223.27,85.74,226.88,87.78Z"/><path class="cls-38" d="M226.84,87.84c3.59,2,3.69,8.65.22,14.79s-9.2,9.48-12.79,7.45-3.68-8.65-.21-14.79S223.25,85.81,226.84,87.84Z"/><path class="cls-39" d="M226.81,87.89c3.57,2,3.67,8.61.21,14.72S217.88,112,214.31,110s-3.67-8.6-.22-14.71S223.24,85.88,226.81,87.89Z"/><path class="cls-40" d="M226.78,88c3.55,2,3.64,8.56.21,14.64s-9.1,9.38-12.65,7.38-3.65-8.57-.21-14.64S223.22,86,226.78,88Z"/><path class="cls-41" d="M226.74,88c3.54,2,3.63,8.52.21,14.56s-9,9.33-12.58,7.34-3.63-8.52-.21-14.57S223.21,86,226.74,88Z"/><path class="cls-42" d="M226.71,88.07c3.52,2,3.61,8.47.21,14.48s-9,9.29-12.52,7.3-3.6-8.47-.21-14.49S223.2,86.08,226.71,88.07Z"/><path class="cls-43" d="M226.68,88.13c3.49,2,3.59,8.42.21,14.41s-9,9.23-12.45,7.25-3.59-8.42-.21-14.41S223.18,86.15,226.68,88.13Z"/><path class="cls-44" d="M226.65,88.18c3.47,2,3.56,8.39.2,14.34s-8.9,9.18-12.38,7.21-3.57-8.38-.21-14.33S223.17,86.22,226.65,88.18Z"/><path class="cls-45" d="M226.61,88.24c3.46,2,3.55,8.34.21,14.26s-8.86,9.13-12.32,7.18-3.55-8.34-.2-14.26S223.15,86.29,226.61,88.24Z"/><path class="cls-46" d="M226.58,88.3c3.44,1.94,3.53,8.29.2,14.18s-8.81,9.08-12.24,7.14-3.54-8.29-.21-14.18S223.14,86.36,226.58,88.3Z"/><path class="cls-47" d="M226.55,88.36c3.42,1.93,3.51,8.24.2,14.1s-8.76,9-12.18,7.1-3.51-8.25-.21-14.1S223.13,86.43,226.55,88.36Z"/><path class="cls-48" d="M226.51,88.42c3.41,1.92,3.5,8.2.21,14s-8.72,9-12.12,7.06-3.49-8.2-.2-14S223.11,86.5,226.51,88.42Z"/><path class="cls-49" d="M226.48,88.48c3.38,1.91,3.47,8.15.2,13.94s-8.66,8.93-12.05,7-3.47-8.15-.2-13.94S223.1,86.56,226.48,88.48Z"/><path class="cls-50" d="M226.45,88.53c3.36,1.9,3.45,8.11.2,13.87s-8.62,8.88-12,7-3.46-8.11-.2-13.86S223.08,86.63,226.45,88.53Z"/><path class="cls-51" d="M226.42,88.59c3.34,1.89,3.43,8.07.19,13.79s-8.56,8.84-11.91,7-3.44-8.07-.2-13.79S223.07,86.7,226.42,88.59Z"/><path class="cls-52" d="M226.38,88.65c3.33,1.88,3.42,8,.2,13.71s-8.52,8.79-11.85,6.91-3.41-8-.2-13.71S223.06,86.77,226.38,88.65Z"/><path class="cls-53" d="M226.35,88.71c3.31,1.87,3.4,8,.2,13.63s-8.48,8.74-11.78,6.87-3.4-8-.2-13.64S223,86.84,226.35,88.71Z"/><path class="cls-54" d="M226.32,88.77c3.29,1.85,3.37,7.92.19,13.55s-8.42,8.69-11.71,6.83-3.38-7.93-.2-13.56S223,86.91,226.32,88.77Z"/><path class="cls-55" d="M226.28,88.82c3.27,1.85,3.36,7.89.2,13.48s-8.38,8.64-11.65,6.79-3.36-7.88-.19-13.48S223,87,226.28,88.82Z"/><path class="cls-56" d="M226.25,88.88c3.25,1.84,3.34,7.84.2,13.41s-8.33,8.58-11.59,6.75-3.33-7.84-.19-13.41S223,87.05,226.25,88.88Z"/><path class="cls-57" d="M226.22,88.94c3.23,1.83,3.32,7.79.19,13.33s-8.28,8.53-11.51,6.71-3.32-7.8-.2-13.33S223,87.11,226.22,88.94Z"/><path class="cls-58" d="M226.19,89c3.21,1.81,3.3,7.75.19,13.25s-8.24,8.49-11.45,6.67-3.3-7.75-.19-13.25S223,87.18,226.19,89Z"/><path class="cls-59" d="M226.15,89.06c3.2,1.8,3.28,7.7.19,13.17s-8.18,8.44-11.38,6.63-3.28-7.7-.19-13.17S223,87.25,226.15,89.06Z"/><path class="cls-60" d="M226.12,89.12c3.18,1.79,3.26,7.65.19,13.09s-8.14,8.39-11.31,6.59-3.27-7.65-.19-13.09S222.94,87.32,226.12,89.12Z"/><path class="cls-61" d="M226.09,89.17c3.15,1.79,3.24,7.62.19,13s-8.09,8.34-11.25,6.55-3.24-7.61-.19-13S222.93,87.39,226.09,89.17Z"/><path class="cls-62" d="M226.05,89.23c3.14,1.78,3.23,7.57.19,12.94s-8,8.29-11.18,6.52-3.22-7.57-.19-12.94S222.92,87.46,226.05,89.23Z"/><path class="cls-63" d="M226,89.29c3.12,1.76,3.2,7.52.19,12.86s-8,8.24-11.12,6.48-3.2-7.52-.18-12.86S222.9,87.53,226,89.29Z"/><path class="cls-64" d="M226,89.35c3.1,1.75,3.18,7.47.18,12.78s-7.94,8.19-11,6.44-3.19-7.48-.19-12.78S222.89,87.6,226,89.35Z"/><path class="cls-65" d="M226,89.41c3.08,1.74,3.16,7.43.18,12.7s-7.9,8.14-11,6.4S212,101.08,215,95.8,222.87,87.66,226,89.41Z"/><path class="cls-65" d="M225.92,89.46c3.07,1.74,3.15,7.39.19,12.63s-7.85,8.1-10.92,6.36-3.14-7.38-.18-12.63S222.86,87.73,225.92,89.46Z"/><path class="cls-66" d="M225.89,89.52c3.05,1.72,3.13,7.34.18,12.55s-7.8,8.05-10.84,6.33-3.13-7.34-.19-12.56S222.84,87.8,225.89,89.52Z"/><path class="cls-66" d="M225.86,89.58c3,1.71,3.1,7.3.18,12.48s-7.76,8-10.78,6.28-3.11-7.3-.18-12.48S222.83,87.87,225.86,89.58Z"/><path class="cls-63" d="M225.8,89.68c3,1.69,3.07,7.22.18,12.34s-7.67,7.91-10.66,6.22-3.08-7.22-.18-12.34S222.81,88,225.8,89.68Z"/><path class="cls-60" d="M225.74,89.78c3,1.68,3,7.14.18,12.21s-7.59,7.82-10.55,6.14-3-7.13-.17-12.2S222.78,88.11,225.74,89.78Z"/><path class="cls-67" d="M225.68,89.89c2.93,1.65,3,7,.18,12.06s-7.5,7.74-10.43,6.08-3-7.06-.17-12.07S222.76,88.23,225.68,89.89Z"/><path class="cls-54" d="M225.63,90c2.89,1.63,3,7,.17,11.93s-7.42,7.65-10.31,6-3-7-.17-11.93S222.73,88.35,225.63,90Z"/><path class="cls-68" d="M225.57,90.09c2.86,1.62,2.94,6.9.17,11.8s-7.33,7.56-10.19,5.94-2.94-6.9-.17-11.8S222.71,88.47,225.57,90.09Z"/><path class="cls-69" d="M225.51,90.19c2.83,1.6,2.91,6.82.17,11.66s-7.25,7.47-10.08,5.88-2.9-6.82-.16-11.67S222.68,88.59,225.51,90.19Z"/><path class="cls-70" d="M225.45,90.29c2.8,1.58,2.87,6.74.17,11.53s-7.16,7.38-10,5.8-2.87-6.74-.17-11.52S222.66,88.71,225.45,90.29Z"/><path class="cls-71" d="M225.4,90.4c2.76,1.56,2.83,6.66.16,11.39s-7.08,7.29-9.84,5.73-2.84-6.66-.17-11.39S222.63,88.83,225.4,90.4Z"/><path class="cls-72" d="M225.34,90.5c2.73,1.54,2.8,6.58.16,11.25s-7,7.21-9.72,5.67-2.81-6.58-.17-11.25S222.61,89,225.34,90.5Z"/><path class="cls-73" d="M225.28,90.6c2.7,1.52,2.77,6.5.16,11.12s-6.91,7.12-9.61,5.6-2.77-6.5-.16-11.12S222.58,89.08,225.28,90.6Z"/><path class="cls-74" d="M225.22,90.7c2.67,1.51,2.74,6.42.16,11s-6.82,7-9.49,5.54-2.73-6.43-.16-11S222.56,89.2,225.22,90.7Z"/><path class="cls-75" d="M225.17,90.8c2.63,1.49,2.7,6.35.15,10.85s-6.74,6.95-9.37,5.46-2.7-6.34-.16-10.84S222.53,89.32,225.17,90.8Z"/><path class="cls-76" d="M225.11,90.91c2.6,1.46,2.67,6.26.15,10.71s-6.65,6.86-9.25,5.39-2.67-6.26-.16-10.71S222.51,89.44,225.11,90.91Z"/><path class="cls-77" d="M225.05,91c2.57,1.45,2.63,6.18.15,10.57s-6.57,6.78-9.14,5.33-2.63-6.18-.15-10.58S222.48,89.56,225.05,91Z"/><path class="cls-78" d="M225,91.11c2.54,1.43,2.6,6.11.15,10.44s-6.48,6.69-9,5.26-2.6-6.11-.15-10.44S222.46,89.68,225,91.11Z"/><path class="cls-28" d="M224.94,91.21c2.5,1.41,2.56,6,.14,10.31s-6.4,6.6-8.9,5.19-2.57-6-.15-10.31S222.43,89.8,224.94,91.21Z"/><path class="cls-26" d="M224.88,91.31c2.46,1.4,2.53,6,.14,10.17s-6.32,6.52-8.78,5.12-2.54-5.94-.15-10.17S222.41,89.92,224.88,91.31Z"/><path class="cls-79" d="M224.82,91.42c2.43,1.37,2.5,5.86.15,10s-6.24,6.43-8.68,5-2.49-5.87-.14-10S222.39,90,224.82,91.42Z"/><path class="cls-80" d="M224.76,91.52c2.4,1.35,2.47,5.79.15,9.9s-6.16,6.34-8.56,5-2.46-5.79-.14-9.9S222.36,90.16,224.76,91.52Z"/><path class="cls-81" d="M224.7,91.62c2.37,1.34,2.44,5.71.15,9.76s-6.07,6.26-8.44,4.92-2.43-5.71-.14-9.76S222.34,90.28,224.7,91.62Z"/><path class="cls-82" d="M224.65,91.72c2.33,1.32,2.4,5.63.14,9.63s-6,6.17-8.32,4.85-2.4-5.63-.14-9.63S222.31,90.4,224.65,91.72Z"/><path class="cls-83" d="M224.59,91.82c2.3,1.3,2.36,5.55.14,9.49s-5.9,6.09-8.2,4.79-2.37-5.56-.14-9.5S222.29,90.52,224.59,91.82Z"/><path class="cls-84" d="M224.53,91.93c2.27,1.28,2.33,5.47.14,9.35s-5.82,6-8.09,4.71-2.33-5.47-.13-9.35S222.26,90.64,224.53,91.93Z"/><path class="cls-15" d="M224.47,92c2.24,1.26,2.3,5.39.14,9.22s-5.73,5.9-8,4.64-2.3-5.39-.13-9.22S222.24,90.76,224.47,92Z"/><path class="cls-85" d="M224.42,92.13c2.2,1.24,2.26,5.31.13,9.08s-5.65,5.82-7.85,4.58-2.26-5.31-.13-9.09S222.21,90.88,224.42,92.13Z"/><path class="cls-86" d="M224.36,92.23c2.17,1.23,2.23,5.23.13,9s-5.56,5.73-7.73,4.51-2.23-5.24-.13-9S222.19,91,224.36,92.23Z"/><path class="cls-87" d="M224.3,92.33c2.14,1.21,2.2,5.16.13,8.82s-5.48,5.64-7.62,4.44-2.19-5.16-.12-8.82S222.16,91.12,224.3,92.33Z"/><path class="cls-88" d="M224.24,92.43c2.11,1.19,2.17,5.08.13,8.68s-5.39,5.56-7.5,4.37-2.16-5.07-.12-8.68S222.14,91.25,224.24,92.43Z"/><path class="cls-89" d="M224.19,92.54c2.07,1.17,2.12,5,.12,8.54s-5.31,5.47-7.38,4.3-2.13-5-.13-8.54S222.11,91.37,224.19,92.54Z"/><path class="cls-90" d="M224.13,92.64c2,1.15,2.09,4.92.12,8.41s-5.22,5.38-7.26,4.23-2.1-4.92-.13-8.41S222.09,91.49,224.13,92.64Z"/><path class="cls-91" d="M224.07,92.74c2,1.13,2.06,4.84.12,8.27s-5.14,5.3-7.15,4.17-2.06-4.84-.12-8.27S222.06,91.61,224.07,92.74Z"/><path class="cls-92" d="M224,92.84c2,1.12,2,4.76.12,8.14s-5,5.21-7,4.1-2-4.76-.12-8.14S222,91.73,224,92.84Z"/><path class="cls-93" d="M224,92.94c1.94,1.1,2,4.68.11,8s-5,5.13-6.91,4-2-4.67-.12-8S222,91.85,224,92.94Z"/><path class="cls-94" d="M223.9,93.05c1.91,1.07,2,4.6.11,7.86s-4.89,5-6.79,4-2-4.6-.12-7.86S222,92,223.9,93.05Z"/><path class="cls-95" d="M223.84,93.15c1.88,1.06,1.93,4.52.11,7.73s-4.8,5-6.68,3.89-1.92-4.52-.11-7.73S222,92.09,223.84,93.15Z"/><path class="cls-96" d="M223.78,93.25c1.85,1,1.89,4.44.11,7.59s-4.72,4.87-6.56,3.83-1.89-4.44-.11-7.6S221.94,92.21,223.78,93.25Z"/><path class="cls-97" d="M223.73,93.35c1.8,1,1.85,4.36.1,7.46s-4.63,4.78-6.44,3.76-1.86-4.37-.11-7.46S221.92,92.33,223.73,93.35Z"/><path class="cls-98" d="M223.67,93.45c1.77,1,1.82,4.29.1,7.33s-4.55,4.69-6.32,3.68-1.83-4.28-.11-7.32S221.89,92.45,223.67,93.45Z"/><path class="cls-99" d="M223.61,93.56c1.74,1,1.79,4.2.1,7.18s-4.46,4.61-6.21,3.62-1.79-4.2-.1-7.18S221.87,92.57,223.61,93.56Z"/><path class="cls-100" d="M223.55,93.66c1.71,1,1.76,4.12.1,7s-4.38,4.52-6.09,3.55-1.75-4.12-.1-7.05S221.84,92.69,223.55,93.66Z"/><path class="cls-101" d="M223.5,93.76c1.67.95,1.72,4,.1,6.92s-4.3,4.43-6,3.48-1.72-4-.1-6.92S221.82,92.81,223.5,93.76Z"/><path class="cls-102" d="M223.44,93.86c1.64.93,1.69,4,.1,6.78s-4.22,4.35-5.86,3.42-1.69-4-.1-6.78S221.79,92.93,223.44,93.86Z"/><path class="cls-103" d="M223.38,94c1.61.91,1.65,3.89.1,6.65s-4.13,4.26-5.74,3.34-1.66-3.88-.1-6.64S221.77,93.05,223.38,94Z"/><path class="cls-104" d="M223.32,94.07c1.58.89,1.62,3.8.1,6.5s-4,4.17-5.63,3.28-1.62-3.8-.09-6.51S221.74,93.17,223.32,94.07Z"/><path class="cls-105" d="M223.26,94.17c1.55.87,1.59,3.72.1,6.37s-4,4.08-5.51,3.21-1.59-3.73-.09-6.37S221.72,93.29,223.26,94.17Z"/><path class="cls-106" d="M223.21,94.27c1.51.85,1.55,3.65.09,6.24s-3.88,4-5.39,3.14-1.56-3.65-.09-6.24S221.69,93.41,223.21,94.27Z"/><path class="cls-107" d="M223.15,94.37c1.48.84,1.52,3.57.09,6.1s-3.79,3.91-5.27,3.08-1.52-3.57-.09-6.11S221.67,93.53,223.15,94.37Z"/><path class="cls-108" d="M223.09,94.47c1.45.82,1.49,3.49.09,6s-3.71,3.82-5.16,3-1.48-3.48-.08-6S221.64,93.66,223.09,94.47Z"/><path class="cls-109" d="M223,94.58c1.42.79,1.46,3.41.09,5.83s-3.62,3.73-5,2.93-1.45-3.41-.08-5.83S221.62,93.78,223,94.58Z"/><path class="cls-110" d="M223,94.68c1.38.78,1.42,3.33.08,5.69s-3.54,3.65-4.92,2.87-1.42-3.33-.08-5.69S221.59,93.9,223,94.68Z"/><path class="cls-111" d="M222.92,94.78c1.35.76,1.38,3.25.08,5.56s-3.46,3.56-4.8,2.8-1.39-3.25-.08-5.56S221.57,94,222.92,94.78Z"/><path class="cls-112" d="M222.86,94.88c1.32.74,1.35,3.17.08,5.43s-3.37,3.47-4.69,2.73-1.35-3.18-.08-5.43S221.55,94.14,222.86,94.88Z"/><path class="cls-113" d="M222.8,95c1.29.73,1.32,3.1.08,5.29s-3.29,3.39-4.57,2.66-1.32-3.09-.08-5.28S221.52,94.26,222.8,95Z"/><path class="cls-114" d="M222.75,95.09c1.25.7,1.28,3,.07,5.15s-3.2,3.3-4.45,2.59-1.28-3-.08-5.15S221.5,94.38,222.75,95.09Z"/><path class="cls-115" d="M222.69,95.19c1.22.68,1.25,2.93.07,5s-3.12,3.22-4.33,2.53-1.25-2.93-.08-5S221.47,94.5,222.69,95.19Z"/><path class="cls-115" d="M222.63,95.29c1.19.67,1.22,2.85.07,4.88s-3,3.13-4.22,2.46-1.21-2.86-.07-4.88S221.45,94.62,222.63,95.29Z"/><path class="cls-116" d="M222.57,95.39c1.16.65,1.19,2.78.07,4.75s-2.95,3-4.1,2.39-1.18-2.78-.07-4.75S221.42,94.74,222.57,95.39Z"/><path class="cls-116" d="M222.52,95.49c1.11.63,1.14,2.7.06,4.61s-2.86,3-4,2.32-1.15-2.69-.07-4.61S221.4,94.86,222.52,95.49Z"/><path class="cls-117" d="M222.46,95.59c1.08.62,1.11,2.62.06,4.48s-2.78,2.87-3.86,2.25-1.12-2.61-.07-4.47S221.37,95,222.46,95.59Z"/><path class="cls-117" d="M222.4,95.7c1,.59,1.08,2.53.06,4.34s-2.69,2.78-3.75,2.18-1.08-2.54-.06-4.34S221.35,95.1,222.4,95.7Z"/><path class="cls-118" d="M222.34,95.8c1,.57,1,2.46.06,4.2s-2.61,2.7-3.63,2.12-1-2.46-.06-4.2S221.32,95.22,222.34,95.8Z"/><path class="cls-119" d="M222.29,95.9c1,.56,1,2.38.05,4.07s-2.52,2.6-3.51,2-1-2.38-.06-4.07S221.3,95.34,222.29,95.9Z"/><path class="cls-119" d="M222.23,96c1,.54,1,2.3.05,3.93s-2.44,2.52-3.39,2-1-2.3-.06-3.94S221.27,95.46,222.23,96Z"/><path class="cls-120" d="M222.17,96.1c.92.52,1,2.22.06,3.8s-2.36,2.43-3.29,1.91-.94-2.22-.05-3.79S221.25,95.58,222.17,96.1Z"/><path class="cls-120" d="M222.11,96.21c.89.5.91,2.14.06,3.66s-2.28,2.34-3.17,1.84-.91-2.14-.05-3.66S221.22,95.7,222.11,96.21Z"/><path class="cls-120" d="M222.06,96.31c.85.48.87,2.06.05,3.52s-2.19,2.26-3.05,1.78-.88-2.06-.05-3.53S221.2,95.82,222.06,96.31Z"/><path class="cls-121" d="M222,96.41c.82.47.84,2,.05,3.39s-2.11,2.17-2.93,1.71-.85-2-.05-3.39S221.17,96,222,96.41Z"/><path class="cls-121" d="M221.94,96.51c.79.45.81,1.91.05,3.26s-2,2.08-2.81,1.64-.82-1.91-.05-3.26S221.15,96.07,221.94,96.51Z"/><path class="cls-121" d="M221.88,96.61c.76.43.78,1.83.05,3.12s-1.94,2-2.7,1.57-.77-1.82,0-3.11S221.13,96.19,221.88,96.61Z"/><path class="cls-121" d="M221.82,96.72c.73.41.75,1.74.05,3s-1.86,1.91-2.58,1.5-.74-1.74,0-3S221.1,96.31,221.82,96.72Z"/><path class="cls-122" d="M221.77,96.82c.69.39.71,1.66,0,2.85s-1.77,1.82-2.46,1.43-.71-1.67,0-2.85S221.08,96.43,221.77,96.82Z"/><path class="cls-123" d="M221.71,96.92c.66.37.68,1.59,0,2.71s-1.69,1.74-2.34,1.37-.68-1.59,0-2.71S221.05,96.55,221.71,96.92Z"/><path class="cls-123" d="M221.65,97c.63.36.64,1.51,0,2.58s-1.6,1.65-2.23,1.3-.64-1.51,0-2.58S221,96.67,221.65,97Z"/><path class="cls-123" d="M221.59,97.12c.6.34.61,1.43,0,2.44s-1.52,1.57-2.11,1.23-.61-1.42,0-2.44S221,96.79,221.59,97.12Z"/><path class="cls-123" d="M221.54,97.23c.56.31.57,1.34,0,2.3s-1.43,1.48-2,1.16-.58-1.35,0-2.3S221,96.91,221.54,97.23Z"/><path class="cls-123" d="M221.48,97.33c.53.3.54,1.27,0,2.17s-1.35,1.39-1.87,1.09-.54-1.27,0-2.17S221,97,221.48,97.33Z"/><path class="cls-123" d="M221.42,97.43c.49.28.51,1.19,0,2s-1.26,1.31-1.76,1-.5-1.19,0-2S220.93,97.15,221.42,97.43Z"/><path class="cls-124" d="M221.36,97.53c.46.26.48,1.11,0,1.9s-1.18,1.22-1.64,1-.47-1.11,0-1.9S220.9,97.27,221.36,97.53Z"/><path class="cls-124" d="M221.31,97.63c.42.25.44,1,0,1.77s-1.09,1.13-1.52.88-.44-1,0-1.76S220.88,97.39,221.31,97.63Z"/><path class="cls-124" d="M221.25,97.74c.39.22.4,1,0,1.62s-1,1-1.4.82-.41-1,0-1.62S220.85,97.51,221.25,97.74Z"/><path class="cls-124" d="M221.19,97.84c.36.2.37.87,0,1.49s-.92,1-1.29.75-.37-.87,0-1.49S220.83,97.63,221.19,97.84Z"/><path class="cls-124" d="M221.13,97.94c.33.19.34.79,0,1.36s-.84.86-1.17.68-.34-.79,0-1.36S220.8,97.75,221.13,97.94Z"/><path class="cls-124" d="M221.08,98c.29.17.3.72,0,1.22s-.76.78-1.05.62-.31-.72,0-1.22S220.78,97.87,221.08,98Z"/><path class="cls-124" d="M221,98.14c.26.15.27.64,0,1.09s-.67.69-.93.54-.27-.63,0-1.08S220.75,98,221,98.14Z"/><path class="cls-124" d="M221,98.25c.23.13.24.55,0,.94s-.59.61-.82.48-.23-.55,0-1S220.73,98.12,221,98.25Z"/><path class="cls-124" d="M220.9,98.35c.2.11.21.47,0,.81s-.5.52-.7.41-.2-.48,0-.81S220.71,98.24,220.9,98.35Z"/><path class="cls-124" d="M220.85,98.45c.16.09.16.4,0,.68s-.43.43-.59.34-.17-.4,0-.68S220.68,98.36,220.85,98.45Z"/><path class="cls-124" d="M220.79,98.55c.13.08.13.32,0,.54s-.34.35-.47.28-.14-.32,0-.55S220.66,98.48,220.79,98.55Z"/><path class="cls-124" d="M220.73,98.65c.1.06.1.24,0,.41s-.26.26-.36.2-.1-.23,0-.4S220.63,98.6,220.73,98.65Z"/><path class="cls-124" d="M220.67,98.76c.07,0,.07.15,0,.27s-.17.17-.24.13-.07-.16,0-.27S220.61,98.72,220.67,98.76Z"/><path class="cls-124" d="M220.62,98.86s0,.08,0,.13-.09.09-.12.07,0-.08,0-.13S220.58,98.84,220.62,98.86Z"/></g><path class="cls-129" d="M227,95.26a14.19,14.19,0,0,1-6.41,11.11c-3.55,2-6.42.39-6.42-3.71a14.17,14.17,0,0,1,6.42-11.11C224.1,89.51,227,91.16,227,95.26Z"/><path class="cls-126" d="M223.59,97.21a6.7,6.7,0,0,1-3,5.25c-1.68,1-3,.19-3-1.75a6.69,6.69,0,0,1,3-5.25C222.23,94.49,223.59,95.27,223.59,97.21Z"/><path class="cls-130" d="M140.84,136.46c-1.82-1-4.3-.8-7,.78-5.59,3.23-10.12,11.08-10.12,17.54,0,3.15,1.07,5.39,2.83,6.47l-3.18-1.8-.35-.2,0,0h0c-1.72-1.1-2.78-3.32-2.78-6.44,0-6.45,4.53-14.31,10.13-17.54a9.13,9.13,0,0,1,4.51-1.38,5.28,5.28,0,0,1,2.5.6Z"/><g class="cls-131"><rect class="cls-11" x="123.68" y="135.48" width="20.25" height="26.9"/><path class="cls-11" d="M140.72,136.36c4.25,2.34,4.6,9.86.77,16.81s-10.35,10.67-14.6,8.34-4.59-9.86-.78-16.81S136.47,134,140.72,136.36Z"/><path class="cls-12" d="M140.69,136.42c4.23,2.33,4.57,9.81.77,16.73s-10.31,10.62-14.54,8.3-4.57-9.82-.77-16.73S136.46,134.09,140.69,136.42Z"/><path class="cls-13" d="M140.66,136.48c4.21,2.31,4.55,9.77.76,16.65s-10.26,10.58-14.47,8.26-4.55-9.77-.76-16.65S136.45,134.16,140.66,136.48Z"/><path class="cls-14" d="M140.63,136.54c4.19,2.3,4.53,9.72.76,16.57s-10.22,10.53-14.41,8.22-4.53-9.72-.76-16.57S136.44,134.23,140.63,136.54Z"/><path class="cls-15" d="M140.59,136.59c4.17,2.3,4.51,9.68.76,16.5s-10.17,10.48-14.34,8.19-4.5-9.68-.75-16.5S136.43,134.3,140.59,136.59Z"/><path class="cls-16" d="M140.56,136.65c4.15,2.28,4.49,9.63.76,16.42s-10.12,10.43-14.27,8.15-4.49-9.64-.76-16.42S136.41,134.37,140.56,136.65Z"/><path class="cls-17" d="M140.53,136.71c4.13,2.27,4.47,9.59.75,16.34s-10.07,10.38-14.2,8.11-4.47-9.59-.75-16.34S136.4,134.44,140.53,136.71Z"/><path class="cls-18" d="M140.5,136.77c4.11,2.26,4.45,9.54.75,16.26s-10,10.33-14.14,8.07-4.45-9.54-.75-16.26S136.39,134.5,140.5,136.77Z"/><path class="cls-19" d="M140.47,136.82c4.09,2.25,4.42,9.5.74,16.19s-10,10.29-14.07,8-4.42-9.5-.74-16.19S136.38,134.57,140.47,136.82Z"/><path class="cls-20" d="M140.44,136.88c4.07,2.24,4.4,9.45.74,16.11s-9.93,10.24-14,8-4.4-9.46-.74-16.11S136.36,134.64,140.44,136.88Z"/><path class="cls-21" d="M140.4,136.94c4.06,2.23,4.39,9.41.74,16s-9.88,10.19-13.93,8-4.39-9.41-.74-16S136.35,134.71,140.4,136.94Z"/><path class="cls-22" d="M140.37,137c4,2.21,4.36,9.36.74,15.95s-9.84,10.14-13.87,7.92-4.37-9.36-.74-16S136.34,134.78,140.37,137Z"/><path class="cls-23" d="M140.34,137.05c4,2.21,4.34,9.32.73,15.88s-9.79,10.09-13.8,7.89-4.34-9.32-.73-15.88S136.33,134.85,140.34,137.05Z"/><path class="cls-24" d="M140.31,137.11c4,2.2,4.32,9.27.73,15.8s-9.75,10-13.74,7.85-4.32-9.27-.73-15.8S136.32,134.91,140.31,137.11Z"/><path class="cls-25" d="M140.28,137.17c4,2.19,4.3,9.23.72,15.72s-9.69,10-13.67,7.81-4.3-9.23-.72-15.73S136.3,135,140.28,137.17Z"/><path class="cls-26" d="M140.25,137.23c3.95,2.17,4.27,9.18.72,15.64s-9.65,9.95-13.61,7.77-4.27-9.18-.72-15.65S136.29,135.05,140.25,137.23Z"/><path class="cls-27" d="M140.21,137.28c3.94,2.17,4.26,9.14.72,15.58s-9.6,9.89-13.53,7.72-4.26-9.13-.72-15.57S136.28,135.12,140.21,137.28Z"/><path class="cls-28" d="M140.18,137.34c3.92,2.16,4.24,9.09.72,15.5s-9.56,9.84-13.47,7.69-4.24-9.09-.72-15.5S136.27,135.19,140.18,137.34Z"/><path class="cls-29" d="M140.15,137.4c3.9,2.14,4.22,9,.71,15.42s-9.5,9.79-13.4,7.65-4.22-9.05-.71-15.42S136.25,135.26,140.15,137.4Z"/><path class="cls-30" d="M140.12,137.46c3.88,2.13,4.19,9,.71,15.34s-9.46,9.75-13.34,7.61-4.19-9-.71-15.34S136.24,135.32,140.12,137.46Z"/><path class="cls-31" d="M140.09,137.51c3.86,2.13,4.17,9,.7,15.27s-9.41,9.7-13.27,7.57-4.17-8.95-.7-15.26S136.23,135.39,140.09,137.51Z"/><path class="cls-32" d="M140.06,137.57c3.83,2.11,4.15,8.91.7,15.19s-9.37,9.65-13.21,7.54-4.15-8.91-.7-15.19S136.22,135.46,140.06,137.57Z"/><path class="cls-33" d="M140,137.63c3.82,2.1,4.13,8.87.7,15.11s-9.32,9.6-13.13,7.5-4.14-8.87-.7-15.11S136.21,135.53,140,137.63Z"/><path class="cls-34" d="M140,137.69c3.8,2.09,4.11,8.82.69,15s-9.26,9.55-13.06,7.46-4.11-8.82-.7-15S136.19,135.6,140,137.69Z"/><path class="cls-35" d="M140,137.74c3.78,2.08,4.09,8.78.69,15s-9.22,9.5-13,7.42-4.09-8.77-.69-15S136.18,135.66,140,137.74Z"/><path class="cls-36" d="M139.93,137.8c3.76,2.07,4.07,8.73.68,14.88s-9.17,9.46-12.93,7.39-4.07-8.73-.68-14.88S136.17,135.73,139.93,137.8Z"/><path class="cls-37" d="M139.9,137.86c3.74,2.06,4,8.69.68,14.8s-9.13,9.41-12.87,7.35-4-8.69-.68-14.8S136.16,135.8,139.9,137.86Z"/><path class="cls-38" d="M139.87,137.92c3.72,2,4,8.64.67,14.72s-9.07,9.36-12.8,7.31-4-8.64-.67-14.72S136.14,135.87,139.87,137.92Z"/><path class="cls-39" d="M139.83,138c3.71,2,4,8.59.68,14.64s-9,9.31-12.73,7.27-4-8.59-.68-14.64S136.13,135.94,139.83,138Z"/><path class="cls-40" d="M139.8,138c3.69,2,4,8.55.67,14.57s-9,9.26-12.66,7.24-4-8.55-.67-14.57S136.12,136,139.8,138Z"/><path class="cls-41" d="M139.77,138.09c3.66,2,4,8.5.67,14.49s-8.94,9.21-12.6,7.2-4-8.51-.67-14.5S136.11,136.07,139.77,138.09Z"/><path class="cls-42" d="M139.74,138.15c3.64,2,3.94,8.46.66,14.41s-8.89,9.17-12.53,7.16-3.94-8.46-.66-14.42S136.1,136.14,139.74,138.15Z"/><path class="cls-43" d="M139.71,138.21c3.62,2,3.92,8.41.66,14.33s-8.84,9.12-12.47,7.12-3.92-8.41-.66-14.34S136.08,136.21,139.71,138.21Z"/><path class="cls-44" d="M139.68,138.26c3.6,2,3.89,8.37.65,14.27s-8.79,9.06-12.4,7.08-3.9-8.37-.65-14.27S136.07,136.28,139.68,138.26Z"/><path class="cls-45" d="M139.64,138.32c3.59,2,3.88,8.32.66,14.19s-8.75,9-12.33,7-3.88-8.33-.66-14.19S136.06,136.35,139.64,138.32Z"/><path class="cls-46" d="M139.61,138.38c3.57,2,3.86,8.28.65,14.11s-8.7,9-12.26,7-3.86-8.28-.65-14.11S136.05,136.42,139.61,138.38Z"/><path class="cls-47" d="M139.58,138.44c3.55,1.95,3.84,8.23.65,14s-8.65,8.91-12.2,7-3.84-8.23-.65-14S136,136.48,139.58,138.44Z"/><path class="cls-48" d="M139.55,138.49c3.53,1.94,3.81,8.19.64,14s-8.6,8.87-12.13,6.93-3.81-8.19-.64-14S136,136.55,139.55,138.49Z"/><path class="cls-49" d="M139.52,138.55c3.51,1.93,3.79,8.14.64,13.88s-8.56,8.82-12.07,6.89-3.79-8.15-.64-13.88S136,136.62,139.52,138.55Z"/><path class="cls-50" d="M139.49,138.61c3.48,1.92,3.77,8.1.63,13.8s-8.51,8.77-12,6.85-3.77-8.1-.63-13.8S136,136.69,139.49,138.61Z"/><path class="cls-51" d="M139.45,138.67c3.47,1.9,3.76,8.05.64,13.72s-8.47,8.72-11.93,6.81-3.76-8-.64-13.72S136,136.76,139.45,138.67Z"/><path class="cls-52" d="M139.42,138.72c3.45,1.9,3.73,8,.63,13.65s-8.41,8.67-11.86,6.78-3.73-8-.63-13.65S136,136.83,139.42,138.72Z"/><path class="cls-53" d="M139.39,138.78c3.43,1.89,3.71,8,.63,13.57s-8.37,8.62-11.8,6.74-3.71-8-.63-13.57S136,136.89,139.39,138.78Z"/><path class="cls-54" d="M139.36,138.84c3.41,1.88,3.69,7.92.62,13.49s-8.32,8.58-11.73,6.7-3.69-7.92-.62-13.49S136,137,139.36,138.84Z"/><path class="cls-55" d="M139.33,138.9c3.39,1.86,3.67,7.87.62,13.41s-8.28,8.53-11.67,6.66-3.67-7.87-.62-13.41S135.94,137,139.33,138.9Z"/><path class="cls-56" d="M139.3,139c3.37,1.86,3.64,7.83.61,13.34s-8.22,8.48-11.6,6.62-3.64-7.82-.61-13.33S135.92,137.1,139.3,139Z"/><path class="cls-57" d="M139.26,139c3.36,1.85,3.63,7.78.61,13.26s-8.17,8.43-11.52,6.59-3.63-7.79-.61-13.27S135.91,137.17,139.26,139Z"/><path class="cls-58" d="M139.23,139.07c3.34,1.83,3.61,7.74.61,13.18s-8.13,8.38-11.46,6.55-3.61-7.74-.61-13.19S135.9,137.24,139.23,139.07Z"/><path class="cls-59" d="M139.2,139.13c3.31,1.82,3.58,7.69.6,13.1s-8.08,8.33-11.39,6.51-3.58-7.69-.6-13.11S135.89,137.3,139.2,139.13Z"/><path class="cls-60" d="M139.17,139.18c3.29,1.82,3.56,7.65.6,13s-8,8.28-11.33,6.46-3.56-7.64-.6-13S135.88,137.37,139.17,139.18Z"/><path class="cls-61" d="M139.14,139.24c3.27,1.8,3.54,7.6.59,13s-8,8.23-11.26,6.43-3.54-7.6-.59-13S135.86,137.44,139.14,139.24Z"/><path class="cls-62" d="M139.11,139.3c3.25,1.79,3.52,7.56.59,12.88s-7.94,8.18-11.2,6.39-3.52-7.56-.59-12.88S135.85,137.51,139.11,139.3Z"/><path class="cls-63" d="M139.07,139.36c3.24,1.78,3.5,7.51.59,12.8s-7.89,8.13-11.12,6.35S125,151,128,145.71,135.84,137.58,139.07,139.36Z"/><path class="cls-64" d="M139,139.41c3.22,1.77,3.48,7.47.59,12.73s-7.85,8.08-11.06,6.31-3.48-7.46-.59-12.72S135.83,137.65,139,139.41Z"/><path class="cls-65" d="M139,139.47c3.2,1.76,3.46,7.42.58,12.65s-7.79,8-11,6.28-3.46-7.42-.58-12.65S135.81,137.71,139,139.47Z"/><path class="cls-65" d="M139,139.53c3.18,1.75,3.43,7.38.58,12.57s-7.75,8-10.93,6.24-3.44-7.38-.58-12.57S135.8,137.78,139,139.53Z"/><path class="cls-66" d="M139,139.59c3.15,1.73,3.41,7.33.57,12.49s-7.7,7.94-10.86,6.2-3.41-7.33-.57-12.49S135.79,137.85,139,139.59Z"/><path class="cls-66" d="M138.92,139.65c3.13,1.72,3.39,7.28.57,12.41s-7.66,7.89-10.8,6.16-3.39-7.28-.57-12.41S135.78,137.92,138.92,139.65Z"/><path class="cls-63" d="M138.86,139.75c3.1,1.7,3.36,7.2.57,12.28s-7.58,7.8-10.68,6.09-3.36-7.2-.57-12.28S135.76,138,138.86,139.75Z"/><path class="cls-60" d="M138.8,139.85c3.07,1.69,3.32,7.12.56,12.14s-7.48,7.72-10.55,6-3.33-7.13-.56-12.14S135.73,138.16,138.8,139.85Z"/><path class="cls-67" d="M138.75,140c3,1.67,3.28,7.05.55,12s-7.4,7.63-10.44,6-3.28-7-.55-12S135.71,138.28,138.75,140Z"/><path class="cls-54" d="M138.69,140.05c3,1.65,3.25,7,.55,11.87s-7.32,7.55-10.32,5.9-3.25-7-.55-11.88S135.69,138.4,138.69,140.05Z"/><path class="cls-68" d="M138.64,140.15c3,1.63,3.21,6.89.54,11.74s-7.24,7.46-10.21,5.83-3.21-6.89-.54-11.74S135.67,138.52,138.64,140.15Z"/><path class="cls-69" d="M138.58,140.25c2.94,1.61,3.18,6.81.54,11.61S132,159.23,129,157.62s-3.18-6.81-.54-11.61S135.65,138.64,138.58,140.25Z"/><path class="cls-70" d="M138.53,140.35c2.9,1.6,3.13,6.73.53,11.47s-7.08,7.29-10,5.7-3.13-6.73-.52-11.47S135.63,138.76,138.53,140.35Z"/><path class="cls-71" d="M138.47,140.45c2.87,1.58,3.1,6.65.52,11.34s-7,7.2-9.85,5.63-3.1-6.66-.52-11.34S135.61,138.88,138.47,140.45Z"/><path class="cls-72" d="M138.42,140.55c2.83,1.56,3.06,6.58.51,11.2s-6.9,7.12-9.74,5.57-3.06-6.58-.51-11.21S135.58,139,138.42,140.55Z"/><path class="cls-73" d="M138.36,140.65c2.8,1.54,3,6.5.51,11.07s-6.82,7-9.62,5.49-3-6.49-.51-11.06S135.56,139.12,138.36,140.65Z"/><path class="cls-74" d="M138.3,140.76c2.77,1.52,3,6.41.51,10.93s-6.74,6.94-9.51,5.42-3-6.41-.5-10.93S135.54,139.24,138.3,140.76Z"/><path class="cls-75" d="M138.25,140.86c2.73,1.5,2.95,6.33.5,10.79s-6.66,6.86-9.39,5.36-3-6.33-.5-10.79S135.52,139.36,138.25,140.86Z"/><path class="cls-76" d="M138.19,141c2.7,1.48,2.92,6.25.49,10.66s-6.57,6.77-9.26,5.29-2.92-6.25-.49-10.66S135.5,139.48,138.19,141Z"/><path class="cls-77" d="M138.14,141.06c2.66,1.46,2.88,6.18.48,10.52s-6.49,6.69-9.15,5.23-2.88-6.18-.48-10.53S135.48,139.59,138.14,141.06Z"/><path class="cls-78" d="M138.08,141.16c2.63,1.44,2.84,6.1.48,10.39s-6.41,6.6-9,5.16-2.84-6.1-.48-10.39S135.46,139.71,138.08,141.16Z"/><path class="cls-28" d="M138,141.26c2.59,1.43,2.8,6,.47,10.26s-6.32,6.51-8.92,5.09-2.8-6-.47-10.26S135.43,139.83,138,141.26Z"/><path class="cls-26" d="M138,141.36c2.56,1.41,2.77,5.94.47,10.12s-6.24,6.43-8.8,5-2.77-5.94-.47-10.12S135.41,140,138,141.36Z"/><path class="cls-79" d="M137.92,141.46c2.52,1.39,2.73,5.86.46,10s-6.16,6.35-8.69,5-2.73-5.86-.46-10S135.39,140.07,137.92,141.46Z"/><path class="cls-80" d="M137.86,141.56c2.49,1.37,2.69,5.78.45,9.86s-6.07,6.26-8.56,4.89-2.69-5.79-.45-9.86S135.37,140.19,137.86,141.56Z"/><path class="cls-81" d="M137.8,141.66c2.46,1.36,2.66,5.71.45,9.72s-6,6.18-8.44,4.82-2.66-5.7-.45-9.71S135.35,140.31,137.8,141.66Z"/><path class="cls-82" d="M137.75,141.77c2.42,1.33,2.62,5.62.44,9.58s-5.91,6.09-8.33,4.75-2.62-5.62-.44-9.58S135.33,140.43,137.75,141.77Z"/><path class="cls-83" d="M137.69,141.87c2.39,1.31,2.59,5.54.44,9.44s-5.83,6-8.21,4.69-2.59-5.54-.44-9.44S135.31,140.55,137.69,141.87Z"/><path class="cls-84" d="M137.64,142c2.35,1.29,2.54,5.46.43,9.31s-5.74,5.92-8.1,4.62-2.54-5.46-.43-9.31S135.28,140.67,137.64,142Z"/><path class="cls-15" d="M137.58,142.07c2.32,1.27,2.51,5.38.42,9.17s-5.65,5.84-8,4.56-2.51-5.38-.42-9.18S135.26,140.79,137.58,142.07Z"/><path class="cls-85" d="M137.53,142.17c2.28,1.26,2.47,5.3.41,9s-5.57,5.75-7.86,4.49-2.47-5.31-.41-9S135.24,140.91,137.53,142.17Z"/><path class="cls-86" d="M137.47,142.27c2.25,1.24,2.44,5.23.41,8.91s-5.49,5.66-7.74,4.42-2.44-5.23-.41-8.91S135.22,141,137.47,142.27Z"/><path class="cls-87" d="M137.42,142.37c2.21,1.22,2.39,5.15.4,8.77s-5.41,5.58-7.63,4.36-2.39-5.15-.4-8.77S135.2,141.15,137.42,142.37Z"/><path class="cls-88" d="M137.36,142.47c2.18,1.2,2.36,5.07.4,8.64s-5.33,5.49-7.51,4.29-2.36-5.07-.4-8.64S135.18,141.27,137.36,142.47Z"/><path class="cls-89" d="M137.3,142.57c2.15,1.19,2.33,5,.4,8.5s-5.25,5.41-7.39,4.23-2.33-5-.4-8.51S135.16,141.39,137.3,142.57Z"/><path class="cls-90" d="M137.25,142.67c2.11,1.17,2.29,4.91.38,8.37s-5.15,5.32-7.27,4.15-2.29-4.91-.38-8.36S135.13,141.51,137.25,142.67Z"/><path class="cls-91" d="M137.19,142.78c2.08,1.14,2.25,4.83.38,8.23s-5.07,5.23-7.15,4.08-2.25-4.83-.38-8.23S135.11,141.63,137.19,142.78Z"/><path class="cls-92" d="M137.14,142.88c2,1.12,2.21,4.75.37,8.09s-5,5.15-7,4-2.21-4.75-.37-8.09S135.09,141.75,137.14,142.88Z"/><path class="cls-93" d="M137.08,143c2,1.1,2.18,4.67.37,8s-4.91,5.06-6.92,3.95-2.18-4.67-.37-8S135.07,141.87,137.08,143Z"/><path class="cls-94" d="M137,143.08c2,1.09,2.14,4.59.36,7.82s-4.83,5-6.81,3.89-2.14-4.59-.36-7.83S135.05,142,137,143.08Z"/><path class="cls-95" d="M137,143.18c1.95,1.07,2.1,4.51.36,7.69s-4.75,4.89-6.69,3.82-2.1-4.51-.36-7.69S135,142.11,137,143.18Z"/><path class="cls-96" d="M136.92,143.28c1.91,1.05,2.06,4.43.34,7.56s-4.66,4.8-6.57,3.75-2.06-4.44-.34-7.56S135,142.23,136.92,143.28Z"/><path class="cls-97" d="M136.86,143.38c1.88,1,2,4.36.34,7.42s-4.57,4.72-6.45,3.69-2-4.36-.34-7.42S135,142.35,136.86,143.38Z"/><path class="cls-98" d="M136.8,143.48c1.85,1,2,4.28.34,7.29s-4.49,4.63-6.34,3.62-2-4.28-.33-7.29S135,142.47,136.8,143.48Z"/><path class="cls-99" d="M136.75,143.58c1.81,1,1.95,4.2.33,7.16s-4.41,4.54-6.22,3.55-2-4.2-.33-7.16S134.94,142.59,136.75,143.58Z"/><path class="cls-100" d="M136.69,143.68c1.78,1,1.92,4.12.33,7s-4.33,4.46-6.1,3.48-1.92-4.11-.33-7S134.92,142.71,136.69,143.68Z"/><path class="cls-101" d="M136.64,143.78c1.74,1,1.88,4,.31,6.89s-4.24,4.37-6,3.41-1.88-4-.32-6.88S134.9,142.83,136.64,143.78Z"/><path class="cls-102" d="M136.58,143.89c1.71.93,1.85,4,.31,6.74s-4.16,4.29-5.86,3.35-1.85-4-.31-6.74S134.88,143,136.58,143.89Z"/><path class="cls-103" d="M136.53,144c1.67.92,1.8,3.88.3,6.61s-4.08,4.2-5.75,3.28-1.8-3.88-.3-6.61S134.86,143.07,136.53,144Z"/><path class="cls-104" d="M136.47,144.09c1.64.9,1.77,3.8.3,6.48s-4,4.11-5.63,3.21-1.77-3.8-.3-6.48S134.83,143.19,136.47,144.09Z"/><path class="cls-105" d="M136.42,144.19c1.6.88,1.73,3.72.29,6.34s-3.91,4-5.52,3.15-1.73-3.72-.29-6.34S134.81,143.31,136.42,144.19Z"/><path class="cls-106" d="M136.36,144.29c1.57.86,1.7,3.64.29,6.21s-3.83,3.94-5.4,3.08-1.7-3.64-.29-6.21S134.79,143.43,136.36,144.29Z"/><path class="cls-107" d="M136.3,144.39c1.54.85,1.66,3.56.28,6.07s-3.74,3.86-5.27,3-1.67-3.57-.28-6.07S134.77,143.55,136.3,144.39Z"/><path class="cls-108" d="M136.25,144.49c1.5.83,1.62,3.49.27,5.94s-3.66,3.77-5.16,2.95-1.62-3.49-.27-5.94S134.75,143.67,136.25,144.49Z"/><path class="cls-109" d="M136.19,144.59c1.47.81,1.59,3.41.27,5.81s-3.58,3.68-5,2.88-1.59-3.41-.27-5.81S134.73,143.79,136.19,144.59Z"/><path class="cls-110" d="M136.14,144.69c1.43.79,1.55,3.33.26,5.67s-3.5,3.6-4.93,2.82-1.55-3.33-.26-5.67S134.71,143.91,136.14,144.69Z"/><path class="cls-111" d="M136.08,144.79c1.4.77,1.51,3.25.26,5.54s-3.41,3.51-4.81,2.74-1.52-3.24-.26-5.53S134.68,144,136.08,144.79Z"/><path class="cls-112" d="M136,144.9c1.36.75,1.47,3.16.25,5.39s-3.33,3.43-4.7,2.68-1.47-3.16-.25-5.39S134.66,144.14,136,144.9Z"/><path class="cls-113" d="M136,145c1.33.73,1.44,3.08.24,5.26s-3.24,3.34-4.57,2.61-1.44-3.09-.24-5.26S134.64,144.26,136,145Z"/><path class="cls-114" d="M135.92,145.1c1.29.71,1.4,3,.23,5.13s-3.16,3.25-4.46,2.54-1.4-3-.23-5.13S134.62,144.38,135.92,145.1Z"/><path class="cls-115" d="M135.86,145.2c1.26.69,1.37,2.93.23,5s-3.08,3.17-4.34,2.48-1.37-2.93-.23-5S134.6,144.5,135.86,145.2Z"/><path class="cls-115" d="M135.8,145.3c1.23.67,1.33,2.85.23,4.86s-3,3.08-4.23,2.41-1.32-2.85-.22-4.86S134.58,144.62,135.8,145.3Z"/><path class="cls-116" d="M135.75,145.4c1.19.66,1.29,2.77.22,4.72s-2.92,3-4.11,2.35-1.29-2.77-.22-4.73S134.56,144.74,135.75,145.4Z"/><path class="cls-116" d="M135.69,145.5c1.16.64,1.26,2.69.21,4.59s-2.82,2.92-4,2.28-1.26-2.7-.21-4.59S134.53,144.86,135.69,145.5Z"/><path class="cls-117" d="M135.64,145.6c1.12.62,1.22,2.62.2,4.46s-2.74,2.83-3.87,2.21-1.22-2.62-.2-4.46S134.51,145,135.64,145.6Z"/><path class="cls-117" d="M135.58,145.7c1.09.6,1.18,2.54.2,4.32s-2.66,2.75-3.75,2.15-1.18-2.54-.2-4.32S134.49,145.1,135.58,145.7Z"/><path class="cls-118" d="M135.53,145.8c1.05.59,1.14,2.46.19,4.19s-2.58,2.66-3.64,2.07-1.14-2.45-.19-4.18S134.47,145.22,135.53,145.8Z"/><path class="cls-119" d="M135.47,145.91c1,.56,1.11,2.37.19,4s-2.5,2.58-3.52,2-1.11-2.37-.19-4.05S134.45,145.34,135.47,145.91Z"/><path class="cls-119" d="M135.42,146c1,.54,1.07,2.29.18,3.91s-2.42,2.49-3.41,1.94-1.07-2.29-.18-3.91S134.43,145.46,135.42,146Z"/><path class="cls-120" d="M135.36,146.11c1,.52,1,2.21.17,3.78s-2.33,2.4-3.28,1.87-1-2.22-.17-3.78S134.41,145.58,135.36,146.11Z"/><path class="cls-120" d="M135.3,146.21c.93.5,1,2.14.17,3.64s-2.24,2.32-3.16,1.81-1-2.14-.17-3.64S134.38,145.7,135.3,146.21Z"/><path class="cls-120" d="M135.25,146.31c.89.49,1,2.06.16,3.51s-2.16,2.23-3,1.74-1-2.06-.16-3.51S134.36,145.82,135.25,146.31Z"/><path class="cls-121" d="M135.19,146.41c.86.47.93,2,.16,3.37s-2.08,2.15-2.93,1.68-.93-2-.16-3.38S134.34,145.94,135.19,146.41Z"/><path class="cls-121" d="M135.14,146.51c.82.45.88,1.9.15,3.24s-2,2.06-2.82,1.61-.88-1.9-.15-3.24S134.32,146.06,135.14,146.51Z"/><path class="cls-121" d="M135.08,146.61c.79.43.85,1.82.15,3.11s-1.92,2-2.7,1.54-.85-1.82-.15-3.11S134.3,146.18,135.08,146.61Z"/><path class="cls-121" d="M135,146.71c.75.42.81,1.75.13,3s-1.83,1.89-2.58,1.48-.81-1.75-.13-3S134.28,146.3,135,146.71Z"/><path class="cls-122" d="M135,146.81c.72.4.78,1.67.13,2.84s-1.75,1.8-2.46,1.4-.78-1.66-.13-2.83S134.26,146.42,135,146.81Z"/><path class="cls-123" d="M134.92,146.91c.68.38.73,1.59.12,2.7s-1.66,1.72-2.35,1.34-.73-1.58-.12-2.7S134.23,146.54,134.92,146.91Z"/><path class="cls-123" d="M134.86,147c.65.35.7,1.5.12,2.56s-1.58,1.63-2.23,1.27-.7-1.5-.12-2.56S134.21,146.66,134.86,147Z"/><path class="cls-123" d="M134.8,147.12c.62.33.67,1.42.12,2.43s-1.5,1.54-2.11,1.2-.67-1.42-.12-2.43S134.19,146.78,134.8,147.12Z"/><path class="cls-123" d="M134.75,147.22c.58.32.63,1.34.1,2.29s-1.41,1.46-2,1.14-.63-1.35-.11-2.29S134.17,146.9,134.75,147.22Z"/><path class="cls-123" d="M134.69,147.32c.55.3.59,1.27.1,2.16s-1.33,1.37-1.87,1.07-.59-1.27-.1-2.16S134.15,147,134.69,147.32Z"/><path class="cls-123" d="M134.64,147.42c.51.28.55,1.19.09,2s-1.25,1.29-1.76,1-.55-1.19-.09-2S134.13,147.14,134.64,147.42Z"/><path class="cls-124" d="M134.58,147.52c.48.26.52,1.11.09,1.89s-1.17,1.2-1.64.94-.52-1.11-.09-1.89S134.11,147.26,134.58,147.52Z"/><path class="cls-124" d="M134.53,147.62c.44.25.48,1,.08,1.76s-1.08,1.11-1.53.87-.48-1-.08-1.76S134.08,147.38,134.53,147.62Z"/><path class="cls-124" d="M134.47,147.72c.41.23.44.95.08,1.62s-1,1-1.41.81-.44-1-.08-1.62S134.06,147.5,134.47,147.72Z"/><path class="cls-124" d="M134.42,147.82c.37.21.4.87.06,1.49s-.91.94-1.29.74-.4-.88-.06-1.49S134,147.62,134.42,147.82Z"/><path class="cls-124" d="M134.36,147.92c.34.19.37.8.06,1.35s-.83.86-1.17.67-.37-.79-.06-1.35S134,147.74,134.36,147.92Z"/><path class="cls-124" d="M134.31,148c.3.16.33.71.05,1.21s-.75.77-1.06.6-.33-.71-.05-1.21S134,147.86,134.31,148Z"/><path class="cls-124" d="M134.25,148.13c.27.15.29.63.05,1.08s-.67.68-.94.53-.29-.63-.05-1.08S134,148,134.25,148.13Z"/><path class="cls-124" d="M134.19,148.23c.24.13.26.55.05.94s-.59.6-.82.47-.26-.55,0-.94S134,148.1,134.19,148.23Z"/><path class="cls-124" d="M134.14,148.33c.2.11.22.47,0,.81s-.5.51-.71.4-.22-.48,0-.81S133.93,148.22,134.14,148.33Z"/><path class="cls-124" d="M134.08,148.43c.17.09.19.4,0,.67s-.41.43-.58.34-.19-.4,0-.68S133.91,148.34,134.08,148.43Z"/><path class="cls-124" d="M134,148.53c.13.08.14.32,0,.54s-.33.34-.47.27-.14-.32,0-.54S133.89,148.46,134,148.53Z"/><path class="cls-124" d="M134,148.63c.1.06.11.24,0,.41s-.25.25-.35.2-.11-.24,0-.41S133.87,148.58,134,148.63Z"/><path class="cls-124" d="M133.92,148.73c.06,0,.07.16,0,.27s-.17.17-.24.14-.07-.16,0-.27S133.85,148.69,133.92,148.73Z"/><path class="cls-124" d="M133.86,148.83a.11.11,0,0,1,0,.14.13.13,0,0,1-.12.07.11.11,0,0,1,0-.14C133.77,148.84,133.83,148.81,133.86,148.83Z"/></g><path class="cls-132" d="M140.22,145.23a14.16,14.16,0,0,1-6.42,11.11c-3.54,2-6.41.39-6.41-3.7a14.17,14.17,0,0,1,6.41-11.11C137.35,139.48,140.22,141.14,140.22,145.23Z"/><path class="cls-126" d="M136.84,147.18a6.71,6.71,0,0,1-3,5.26c-1.67,1-3,.18-3-1.75a6.72,6.72,0,0,1,3-5.26C135.48,144.46,136.84,145.25,136.84,147.18Z"/><path class="cls-133" d="M236.74,71.17V89.51l-5.11,2.95c-.12-7.21-5.27-10.09-11.6-6.44s-11.48,12.49-11.6,19.83l-41.17,23.77c-.12-7.21-5.26-10.09-11.59-6.44l-23.21,13.4c-6.33,3.65-11.48,12.48-11.6,19.83L115,159.68V141.45Z"/><path class="cls-134" d="M115,141.45s0,17.62,0,18.23L73.93,136V117.89Z"/><g class="cls-135"><polygon class="cls-136" points="94.1 129.36 94.17 153.46 115.03 141.42 94.1 129.36"/></g><path class="cls-137" d="M60.9,190.31l-10.11-5.89a21.33,21.33,0,0,1,1.81-1.26l.25-.13c2.65-1.53,4.48-1.38,5.7-.66a4.15,4.15,0,0,1,.53.37l0,0a3.35,3.35,0,0,1,.43.41l0,0c.12.14.22.29.32.43l0,.05c.1.15.19.29.28.45h0a3.71,3.71,0,0,1,.22.45.1.1,0,0,1,0,0l.15.35v0l.09.28v0a.58.58,0,0,1,0,.2C60.79,186.18,60.9,190.11,60.9,190.31Z"/><path class="cls-138" d="M45.51,182.14c2-1.45,3.79-1.81,5.26-1.24h0a4.14,4.14,0,0,1,1,.58l4.6,2.67a4,4,0,0,0-2.94-.25,7.36,7.36,0,0,0-2.68,1.33C46.37,188.47,43.08,196,43.41,202a10.94,10.94,0,0,0,.63,3.21,5.46,5.46,0,0,0,1.71,2.44L41,204.88l-.23-.14c-1.48-.93-2.48-3-2.64-5.88C37.84,192.88,41.12,185.39,45.51,182.14Z"/><path class="cls-139" d="M44,205.17a10.94,10.94,0,0,1-.63-3.21c-.33-6,3-13.49,7.34-16.73a7.36,7.36,0,0,1,2.68-1.33,4,4,0,0,1,2.94.25l.29.17,0,0c1.47.94,2.44,2.95,2.61,5.85.33,6-3,13.48-7.34,16.73-2,1.46-3.83,1.81-5.31,1.21a3.7,3.7,0,0,1-.9-.52A5.46,5.46,0,0,1,44,205.17Z"/><path class="cls-140" d="M46.66,201.91a6.79,6.79,0,0,1-.4-2.06C46,196,48.15,191.19,51,189.11a4.82,4.82,0,0,1,1.71-.86,2.61,2.61,0,0,1,1.9.17l.18.1,0,0c.94.6,1.57,1.89,1.68,3.75.21,3.85-1.9,8.66-4.72,10.75a3.56,3.56,0,0,1-3.41.78,2.1,2.1,0,0,1-.57-.34A3.41,3.41,0,0,1,46.66,201.91Z"/><path class="cls-141" d="M49.3,198.63a2.87,2.87,0,0,1-.18-.9A6,6,0,0,1,51.19,193a1.94,1.94,0,0,1,.75-.37,1.12,1.12,0,0,1,.83.07l.08,0h0a2,2,0,0,1,.73,1.65,6,6,0,0,1-2.07,4.7,1.52,1.52,0,0,1-1.49.35,1.28,1.28,0,0,1-.25-.15A1.45,1.45,0,0,1,49.3,198.63Z"/><path class="cls-138" d="M10.12,162.18c2-1.44,3.79-1.8,5.26-1.23h0a3.83,3.83,0,0,1,1,.58L21,164.2a4,4,0,0,0-2.94-.26,7.69,7.69,0,0,0-2.68,1.33C11,168.52,7.69,176,8,182a10.81,10.81,0,0,0,.63,3.21,5.44,5.44,0,0,0,1.71,2.45l-4.71-2.74-.23-.13c-1.48-.93-2.48-2.95-2.64-5.88C2.45,172.92,5.73,165.43,10.12,162.18Z"/><path class="cls-139" d="M8.65,185.21A10.81,10.81,0,0,1,8,182c-.33-6,3-13.48,7.34-16.73A7.69,7.69,0,0,1,18,163.94a4,4,0,0,1,2.94.26l.29.16,0,0c1.47.94,2.44,3,2.61,5.85.33,6-3,13.47-7.34,16.72-2,1.46-3.83,1.82-5.31,1.22a3.7,3.7,0,0,1-.9-.52A5.44,5.44,0,0,1,8.65,185.21Z"/><path class="cls-140" d="M11.27,182a6.79,6.79,0,0,1-.4-2.06c-.22-3.85,1.89-8.66,4.71-10.75a4.78,4.78,0,0,1,1.71-.85,2.61,2.61,0,0,1,1.9.16l.18.11,0,0c.94.6,1.57,1.89,1.67,3.75.22,3.85-1.89,8.66-4.71,10.74a3.54,3.54,0,0,1-3.41.79,2.77,2.77,0,0,1-.57-.34A3.47,3.47,0,0,1,11.27,182Z"/><path class="cls-141" d="M13.91,178.68a2.93,2.93,0,0,1-.18-.9,6,6,0,0,1,2.07-4.71,2,2,0,0,1,.75-.38,1.17,1.17,0,0,1,.83.07l.08.05h0a2,2,0,0,1,.73,1.64,6,6,0,0,1-2.07,4.71,1.56,1.56,0,0,1-1.49.35,1.28,1.28,0,0,1-.25-.15A1.56,1.56,0,0,1,13.91,178.68Z"/><g id="_Group_" data-name="&lt;Group&gt;"><path class="cls-142" d="M27.63,113.58a.93.93,0,0,1,1.29-.43,1.09,1.09,0,0,1,.15,1.44.93.93,0,0,1-1.29.44A1.1,1.1,0,0,1,27.63,113.58Z"/><path class="cls-143" d="M29.07,114.59a1.09,1.09,0,0,0-.15-1.44.93.93,0,0,0-1.29.43,1.1,1.1,0,0,0,.15,1.45A.93.93,0,0,0,29.07,114.59Zm-1.76-1.21a1.39,1.39,0,0,1,1.82-.69h0l.07,0a1.61,1.61,0,0,1,.2,2.12,1.48,1.48,0,0,1-1.57.8,3.78,3.78,0,0,0-.56-.4A1.73,1.73,0,0,1,27.31,113.38Z"/><path class="cls-144" d="M29.21,112.73l-.07,0a4.15,4.15,0,0,1,3.28,3.46v14.9a7.66,7.66,0,0,0-2-.12,6.87,6.87,0,0,0-1.1.17l0-12.88a3.62,3.62,0,0,0-1.47-2.57,1.48,1.48,0,0,0,1.57-.8A1.61,1.61,0,0,0,29.21,112.73Z"/><path class="cls-144" d="M32.4,131.86v0c0,.25-.57.48-1.32.54s-1.65-.14-1.79-.44v-.17c.1-.24.61-.44,1.3-.49.86-.06,1.66.14,1.8.44A.17.17,0,0,1,32.4,131.86Z"/><path class="cls-144" d="M30.39,130.93a7.66,7.66,0,0,1,2,.12v.81a.17.17,0,0,0,0-.07c-.14-.3-.94-.5-1.8-.44-.69.05-1.2.25-1.3.49v-.74A6.87,6.87,0,0,1,30.39,130.93Z"/><path class="cls-143" d="M29.29,132v.85c-.69-.14-1.2-.39-1.34-.7a.41.41,0,0,1,0-.16c0-.36.53-.7,1.37-.9v.74A.25.25,0,0,0,29.29,132Z"/><path class="cls-143" d="M31.31,133a7.66,7.66,0,0,1-2-.12V132c.14.3.94.5,1.79.44s1.29-.29,1.32-.54a0,0,0,0,0,0,0v-.81c.69.14,1.21.39,1.34.7a.37.37,0,0,1,0,.29C33.61,132.5,32.63,132.89,31.31,133Z"/><path class="cls-145" d="M28,132.16c.14.31.65.56,1.34.7a7.66,7.66,0,0,0,2,.12c1.32-.09,2.3-.48,2.46-.94l0,18.24a2.68,2.68,0,0,1-2.92,2.34,2.69,2.69,0,0,1-2.93-2.34l0-18.28h0A.41.41,0,0,0,28,132.16Z"/></g><g id="_Group_2" data-name="&lt;Group&gt;"><path class="cls-146" d="M112.86,147.61a12.43,12.43,0,0,1,4.28,8.74,4,4,0,0,1-1.64,3.59L88.66,175.49a2.38,2.38,0,0,0,.53-.43,1.07,1.07,0,0,0,.14-.16l0,0a2.93,2.93,0,0,0,.4-.63l.08-.17a2.32,2.32,0,0,0,.13-.37,3.8,3.8,0,0,0,.14-.51l0-.11c0-.13,0-.27,0-.42a.59.59,0,0,0,0-.13c0-.07,0-.15,0-.23a2.06,2.06,0,0,0,0-.35,12.3,12.3,0,0,0-5.57-9.67,6.29,6.29,0,0,0-1-.47l-.28-.1-.29-.08v-.88L85.2,162l1.31.76Z"/><path class="cls-144" d="M113.43,109.83l.07,37.42-.64.36L86.51,162.74l0-1.54,0-2.72L87,134.54l7.48-13.8Zm-1.85,36.5.47-33.18-1.32.75-14.56,8.2-7,13.19-.58,22v.45l-.05,1.8,22.75-13,.26-.15Z"/><path class="cls-146" d="M62.79,99.64,94,118l13.86-7.63,1.41-.78-33.16-19-.06,0L61.42,98.83Zm50.64,10.19-19,10.91-8.89-5.18L68.21,105.44,56.86,98.82l19-10.91Z"/><path class="cls-147" d="M112.05,113.15l-.47,33.18-1.48-.86.19-.1s.35-24.57.44-31.47Z"/><path class="cls-148" d="M111.58,146.33v.07l-.26.15-22.75,13,.05-1.8,20.67-11.8.81-.47Z"/><path class="cls-149" d="M101,124.25l-1.37.85h0A4.6,4.6,0,0,0,98,128.66v1.93c0,1.41.73,2.08,1.66,1.52l5.08-3.13,1.13-.7a2.07,2.07,0,0,0,.24-.17,3.74,3.74,0,0,0,1-1.36,4.76,4.76,0,0,0,.31-.87,5.33,5.33,0,0,0,.17-1.17v-1.93c0-1.41-.74-2.09-1.66-1.51l-2.52,1.55-.8.49Zm-4.82-2.15,14.56-8.2c-.09,6.9-.44,31.47-.44,31.47l-.19.1-.81.47-20.67,11.8v-.45l.58-22Z"/><path class="cls-147" d="M109.28,109.55l-1.41.78L76.11,92.09l-.06,0V90.55l.06,0Z"/><path class="cls-150" d="M76.05,92.13l.06,0,31.76,18.24L94,118,62.79,99.64Z"/><path class="cls-144" d="M107.5,122.78v1.93a5.33,5.33,0,0,1-.17,1.17l-.59-.46a3.07,3.07,0,0,0,0-.42v-1.63c0-1.2-.62-1.78-1.41-1.3l-1.66,1-.38-.28,2.52-1.55C106.76,120.69,107.51,121.37,107.5,122.78Z"/><path class="cls-144" d="M106.74,125.42l.59.46a4.76,4.76,0,0,1-.31.87l-.5-.39A4.29,4.29,0,0,0,106.74,125.42Z"/><path class="cls-144" d="M107,126.75a3.74,3.74,0,0,1-1,1.36l-.41-.31a3.67,3.67,0,0,0,.88-1.44Z"/><path class="cls-151" d="M106.77,123.37V125a3.07,3.07,0,0,1,0,.42l-3-2.32,1.66-1C106.15,121.59,106.78,122.17,106.77,123.37Z"/><path class="cls-152" d="M103.7,123.1l3,2.32a4.29,4.29,0,0,1-.22.94l-3.63-2.76Z"/><path class="cls-151" d="M102.89,123.6l3.63,2.76a3.67,3.67,0,0,1-.88,1.44l-4.28-3.26Z"/><path class="cls-144" d="M105.64,127.8l.41.31a2.07,2.07,0,0,1-.24.17l-1.13.7-.39-.3,1-.65A1.26,1.26,0,0,0,105.64,127.8Z"/><path class="cls-152" d="M101.36,124.54l4.28,3.26a1.26,1.26,0,0,1-.3.23l-1,.65L100,125.4a.41.41,0,0,1,.11-.07Z"/><path class="cls-144" d="M104.68,129l-5.08,3.13c-.93.56-1.67-.11-1.66-1.52v-1.93a4.6,4.6,0,0,1,1.65-3.55l.38.29a4,4,0,0,0-1.32,3V130c0,1.19.63,1.76,1.41,1.28l4.23-2.6Z"/><path class="cls-151" d="M104.29,128.68l-4.23,2.6c-.78.48-1.41-.09-1.41-1.28v-1.64a4,4,0,0,1,1.32-3Z"/><polygon class="cls-149" points="103.7 123.1 102.89 123.6 102.52 123.31 103.32 122.82 103.7 123.1"/><polygon class="cls-144" points="102.89 123.6 101.36 124.54 100.99 124.25 102.52 123.31 102.89 123.6"/><path class="cls-144" d="M101,124.25l.37.29-1.27.79a.41.41,0,0,0-.11.07l-.38-.29h0Z"/><path class="cls-150" d="M77.51,125.73l5.28,2.89c1.48.81,3.52-.06,4.56-1.94l1.43-2.6c1-1.89.68-4.09-.8-4.9l-.61-.34L86,118.11l-1.9-1,1-.68.49-.83,8.89,5.18L87,134.54l-12.54-7.3,1-1.75.69-.49Z"/><path class="cls-68" d="M84.67,162.28A12.3,12.3,0,0,1,90.24,172a2.06,2.06,0,0,1,0,.35c0,.08,0,.16,0,.23a.59.59,0,0,1,0,.13c0,.15,0,.29,0,.42l0,.11a3.8,3.8,0,0,1-.14.51,2.32,2.32,0,0,1-.13.37l-.08.17a2.93,2.93,0,0,1-.4.63l0,0a1.07,1.07,0,0,1-.14.16,2.38,2.38,0,0,1-.53.43l0,0a2.85,2.85,0,0,1-1.68.38,4.35,4.35,0,0,1-1.39-.3l-2.14-1.29-.29-.26v-12.4l.29.07.28.1A6.29,6.29,0,0,1,84.67,162.28Z"/><path class="cls-146" d="M88,119.18c1.48.81,1.83,3,.8,4.9l-1.43,2.6c-1,1.88-3.08,2.75-4.56,1.94l-5.28-2.89.76-.54,4.16,2.29c1.26.7,3,0,3.87-1.65l1.22-2.21c.87-1.61.57-3.47-.69-4.16l-.2-.11.74-.51Z"/><path class="cls-151" d="M86.83,119.46c1.26.69,1.56,2.55.69,4.16l-1.22,2.21c-.88,1.6-2.61,2.35-3.87,1.65l-4.16-2.29,8.36-5.84Z"/><polygon class="cls-146" points="87.37 118.84 86.63 119.35 85.32 118.63 86.04 118.11 87.37 118.84"/><polygon class="cls-153" points="86.95 176.51 86.95 177.79 83.14 180.05 82.12 180.66 70.24 187.7 67.65 189.19 65.34 187.84 66.57 187.16 67.65 187.78 79.64 180.88 83.13 178.87 83.13 178.79 86.95 176.51"/><path class="cls-154" d="M87,176.44v.07l-3.82,2.28-3.49,2.09-12,6.9-1.08-.63,1-.57V183l.06,0,15.45-8.89h0l.29.19a9.3,9.3,0,0,0,1.2.84,7.27,7.27,0,0,0,.94.45Z"/><polygon class="cls-155" points="87 134.54 86.58 158.48 86.53 161.2 86.51 162.74 85.2 161.98 83.11 160.75 83.1 160.49 83.1 159.17 84.28 159.81 84.68 159.58 85.11 135.69 50.87 115.85 50.87 119.73 49.28 118.81 49.39 112.63 57.1 117.12 74.46 127.24 87 134.54"/><polygon class="cls-152" points="85.32 118.63 86.63 119.35 78.27 125.19 76.95 124.47 85.32 118.63"/><polygon class="cls-146" points="86.04 118.11 85.32 118.63 83.4 117.58 84.14 117.07 86.04 118.11"/><path class="cls-155" d="M83.42,174.3l2.14,1.29a7.27,7.27,0,0,1-.94-.45A9.3,9.3,0,0,1,83.42,174.3Z"/><path class="cls-150" d="M69.75,109.21l-3.24-1.78.91-.63.79-1.36,17.38,10.12-.49.83-1,.68-1.8-1L78,113.7c-1.48-.81-3.53.06-4.57,2L72,118.25c-1,1.76-.73,3.78.51,4.71a2.4,2.4,0,0,0,.29.19L76.18,125l-.69.49-1,1.75L57.1,117.12l.7-1.21.77-.54,1.33.72,4.95,2.72c1.48.82,3.52-.06,4.55-2l1.43-2.6c1-1.89.68-4.08-.8-4.9Z"/><polygon class="cls-151" points="85.32 118.63 76.95 124.47 75.03 123.42 83.4 117.58 85.32 118.63"/><polygon class="cls-156" points="85.11 135.69 84.68 159.58 84.28 159.81 83.1 159.17 83.07 141.97 83.07 138.5 50.87 119.73 50.87 115.85 85.11 135.69"/><polygon class="cls-146" points="84.14 117.07 83.4 117.58 81.61 116.59 82.33 116.08 84.14 117.07"/><path class="cls-155" d="M83.4,161.71l-.29-.07h0Z"/><path class="cls-152" d="M81.61,116.59l1.79,1L75,123.42,74,122.83a1.86,1.86,0,0,1-.59-.49Z"/><polygon class="cls-155" points="83.13 178.79 83.13 178.87 79.64 180.88 83.13 178.79"/><polygon class="cls-155" points="83.13 174.06 83.13 174.11 83.11 174.1 83.08 174.09 83.11 174.07 83.13 174.06"/><polygon class="cls-144" points="83.13 174.04 83.13 174.06 83.11 174.07 83.11 174.02 83.11 172.66 83.13 172.65 83.13 174.04"/><path class="cls-155" d="M83.12,167.29v5.36h0l-.86.49-14.62,8.42-.06,0v5.05l-1,.57-1.23.69-2.63,1.47v-.18c0-1,0-4.75-.13-5.85-.13-1.28-3.19-7.1-9.69-3.52l-.27.15-.14.09a20.28,20.28,0,0,0-7.69,8.92l0,.05-.51,1-.07.14h0L42,194.6l-.14-.08v-8.46a15.21,15.21,0,0,1,2.3-4.23l0,0a23.67,23.67,0,0,1,9.45-7.38c4.5-2,8-1.55,10.36-.57l.35.14h0a9.81,9.81,0,0,1,3.21,2.26l1-.59,11.25-6.47Z"/><polygon class="cls-153" points="83.11 174.02 83.11 174.07 83.08 174.09 67.64 182.97 67.58 182.94 67.57 181.53 67.64 181.57 82.25 173.15 83.11 172.66 83.11 174.02"/><path class="cls-153" d="M81,161.74l-.09,0-.13.08Zm.56-.17a3.64,3.64,0,0,1,1.56.07v5.65l-3.29,1.9-11.25,6.47-1,.59A9.81,9.81,0,0,0,64.35,174h0l-.35-.35,0-12.39V158l.35-.18,2.31,1.33v.26h0l0,10c0,1.67.83,2.47,1.92,2.63a2.45,2.45,0,0,0,.46,0c1.31,0,2.38-.77,2.38-2.67V157.07h.45l2.44-1.43L82.15,151V142h.91l0,17.2v1.32l-.22.13.23.13v.88A3.47,3.47,0,0,0,81.55,161.57Z"/><path class="cls-157" d="M83.11,161.63h0a3.64,3.64,0,0,0-1.56-.07A3.47,3.47,0,0,1,83.11,161.63Z"/><polygon class="cls-157" points="83.1 160.49 83.11 160.75 82.88 160.62 83.1 160.49"/><path class="cls-153" d="M83.07,138.5V142h-.91l-7.11,4.18L72,148l0,6.26,0,2.84h-.45v-1.64c0-1.9-1.06.38-2.37.38a2,2,0,0,1-1.14-.48c.25-.93.53-1.94.82-2.94a37.62,37.62,0,0,1,2.05-5.94,1.14,1.14,0,0,1,.09-.16,8.44,8.44,0,0,1,1.92-1.65c1.75-1.24,4.35-2.79,6.49-4S83,138.54,83.07,138.5Z"/><path class="cls-146" d="M50.87,119.73l32.2,18.77c-.09,0-1.67.9-3.78,2.11s-4.74,2.79-6.49,4l-23.73-14-13.66-8.07c1.75-1.22,4.21-2.69,6.26-3.87s3.7-2.08,3.78-2.12l3.83,2.23Z"/><path class="cls-146" d="M82.34,116.08l-.73.51-3.25-1.78c-1.26-.69-3,0-3.88,1.66l-1.2,2.2a3.28,3.28,0,0,0,.09,3.67l-.82.57,0,0C71.28,122,71,120,72,118.25l1.42-2.6c1-1.89,3.09-2.76,4.57-2Z"/><path class="cls-146" d="M82.16,142V151l-7.83,4.61-2.44,1.43,0-2.84L72,148l3.09-1.82Zm-.69,8.65v-7.19l-8.77,5,0,6.23v1l.84-.48Z"/><path class="cls-151" d="M81.61,116.59l-8.24,5.75a3.28,3.28,0,0,1-.09-3.67l1.2-2.2c.88-1.61,2.62-2.35,3.88-1.66Z"/><polygon class="cls-158" points="81.46 143.43 81.47 150.62 73.55 155.19 72.71 155.67 72.71 154.7 72.69 148.47 81.46 143.43"/><path class="cls-157" d="M81,161.74l-.22.11.13-.08Z"/><polygon class="cls-146" points="78.27 125.19 77.51 125.73 76.18 125 76.95 124.47 78.27 125.19"/><path class="cls-146" d="M75,123.42l1.92,1-.77.53-3.37-1.85a2.4,2.4,0,0,1-.29-.19l0,0,.82-.57a1.86,1.86,0,0,0,.59.49Z"/><path class="cls-159" d="M76.06,90.55v1.58L62.79,99.64l-1.37-.81Z"/><path class="cls-150" d="M64.75,142.86l-2.48-1.48L49,133.5l-3-1.78-2.49-1.47-10.16-6a11.43,11.43,0,0,1,2-1.64l13.66,8.07,23.73,14a8.44,8.44,0,0,0-1.92,1.65,1.14,1.14,0,0,0-.09.16Z"/><path class="cls-144" d="M71.43,157.07v12.34c0,1.9-1.07,2.67-2.38,2.67a2.45,2.45,0,0,1-.46,0c-1.09-.16-1.92-1-1.92-2.63l0-10h0v-4c0-1.29.5-.64,1.24-.09a2,2,0,0,0,1.14.48c1.31,0,2.38-2.28,2.37-.38Z"/><path class="cls-146" d="M70,109.36c1.48.82,1.84,3,.8,4.9l-1.43,2.6c-1,1.89-3.07,2.77-4.55,2l-4.95-2.72.75-.53,3.83,2.1c1.26.7,3,0,3.88-1.65l1.21-2.21c.85-1.55.6-3.33-.56-4.07l.74-.52Z"/><path class="cls-146" d="M66,145.21l-2.66-1.56,1.44-.79,6,3.59a37.62,37.62,0,0,0-2.05,5.94c-.29,1-.57,2-.82,2.94-.74-.55-1.24-1.2-1.24.09v3.73l-2.31-1.33L64,158v-.39l-5.31-3.1-2.82-1.64,1.63-.89,6.54,3.85,1.76-5.15,1.37-4,.22-.65Z"/><path class="cls-146" d="M67.7,109l-1.91-1,.72-.51,3.24,1.78-.74.52a.38.38,0,0,0-.13-.09Z"/><path class="cls-151" d="M69,109.73c1.16.74,1.41,2.52.56,4.07L68.36,116c-.89,1.6-2.62,2.35-3.88,1.65l-3.83-2.1Z"/><path class="cls-152" d="M68.88,109.64a.38.38,0,0,1,.13.09l-8.36,5.83-1.32-.73L67.7,109Z"/><path class="cls-150" d="M64.72,106.45l-4.67-2.56c-1.48-.82-3.52,0-4.56,1.94l-1.43,2.6c-1,1.9-.67,4.09.81,4.9l3.7,2-.77.54-.7,1.21-7.71-4.49,7.47-13.81,11.35,6.62-.79,1.36-.91.63Z"/><polygon class="cls-151" points="65.79 107.94 67.7 108.99 59.33 114.83 57.42 113.79 65.79 107.94"/><polygon class="cls-152" points="67.41 146.05 67.19 146.7 57.52 151.98 55.62 150.86 65.97 145.21 67.41 146.05"/><polygon class="cls-151" points="57.52 151.98 67.19 146.7 65.82 150.69 64.06 155.82 57.52 151.98"/><polygon class="cls-146" points="66.51 107.43 65.79 107.94 63.99 106.96 64.72 106.45 66.51 107.43"/><polygon class="cls-151" points="63.31 143.65 65.97 145.21 55.62 150.86 52.96 149.3 63.31 143.65"/><path class="cls-152" d="M65.79,107.94l-8.37,5.85L56,113a1.31,1.31,0,0,1-.34-.24L64,107Z"/><polygon class="cls-146" points="64.75 142.86 63.31 143.65 60.81 142.18 62.27 141.38 64.75 142.86"/><path class="cls-146" d="M60.05,103.89l4.67,2.56L64,107l-3.58-2c-1.25-.69-3,.05-3.87,1.66l-1.21,2.21a3.16,3.16,0,0,0,.34,3.91l-.8.56c-1.48-.81-1.84-3-.81-4.9l1.43-2.6C56.53,103.94,58.57,103.07,60.05,103.89Z"/><path class="cls-157" d="M64.35,174l-.35-.14c-2.36-1-5.86-1.47-10.36.57a23.67,23.67,0,0,0-9.45,7.38l0-6.56,2.9-2.06.05,0c.56-.32,1.15-.63,1.76-.92,8.49-4.06,13.8.11,15.15,1.4Z"/><path class="cls-155" d="M47.11,173.13l-.07,0a25.77,25.77,0,0,0-3,2s0,0,0,0a20.12,20.12,0,0,0-6.59,8.29l-.19-.12.38-11.52.08,0L64,158v3.24l0,12.39c-1.35-1.29-6.66-5.46-15.15-1.4-.61.29-1.2.6-1.76.92Z"/><polygon class="cls-160" points="64.02 157.61 64.02 158 37.7 171.79 31.91 168.71 31.91 168.45 32.2 168.28 34.04 167.19 58.71 154.51 64.02 157.61"/><path class="cls-151" d="M60.41,105,64,107l-8.32,5.81a3.16,3.16,0,0,1-.34-3.91l1.21-2.21C57.42,105,59.16,104.3,60.41,105Z"/><polygon class="cls-152" points="63.31 143.65 52.96 149.3 50.46 147.83 60.81 142.18 63.31 143.65"/><path class="cls-144" d="M62.71,189.13v.18l-1.81,1c0-.2-.11-4.13-.17-4.76a.58.58,0,0,0,0-.2v0L60.6,185v0l-.15-.35a.1.1,0,0,0,0,0,3.71,3.71,0,0,0-.22-.45h0c-.09-.16-.18-.3-.28-.45l0-.05c-.1-.14-.2-.29-.32-.43l0,0a3.35,3.35,0,0,0-.43-.41l0,0a4.15,4.15,0,0,0-.53-.37c-1.22-.72-3-.87-5.7.66l-.25.13a21.33,21.33,0,0,0-1.81,1.26,19.25,19.25,0,0,0-6.58,9.49l-1.57.91-.14.08-.51-.3,2.2-4.46.07,0c.07-.18.23-.61.51-1.2l0-.05A20.28,20.28,0,0,1,52.48,180l.14-.09.27-.15c6.5-3.58,9.56,2.24,9.69,3.52C62.7,184.38,62.71,188.09,62.71,189.13Z"/><polygon class="cls-146" points="51.88 136.96 49.32 135.45 49.01 135.28 48.99 135.26 47.1 134.15 44.44 132.6 46.04 131.72 49.02 133.5 62.27 141.38 60.81 142.18 51.88 136.96"/><polygon class="cls-151" points="60.81 142.18 50.46 147.83 48.27 146.54 51.88 136.96 60.81 142.18"/><polygon class="cls-146" points="60.65 115.56 59.9 116.09 58.57 115.37 59.33 114.83 60.65 115.56"/><path class="cls-146" d="M57.42,113.79l1.91,1-.76.54-3.7-2,.8-.56A1.31,1.31,0,0,0,56,113Z"/><path class="cls-161" d="M55.89,152.87l2.82,1.64L34,167.19l-1.95,1-.18-.14c-.57-.5-1.34-1.14-2.24-1.84L54.42,152Z"/><polygon class="cls-146" points="55.62 150.86 57.52 151.98 55.89 152.87 54.42 152.01 53.97 151.75 55.62 150.86"/><polygon class="cls-146" points="52.96 149.3 55.62 150.86 53.97 151.75 37.06 141.91 36.97 141.86 38.7 140.91 45.7 145.03 48.27 146.54 50.46 147.83 52.96 149.3"/><path class="cls-143" d="M54,151.75l.45.26-24.75,14.2a42.13,42.13,0,0,0-6.9-4.57A38.33,38.33,0,0,0,16,159.22l21.08-17.31Z"/><polygon class="cls-146" points="51.88 136.96 48.27 146.54 45.7 145.03 49.32 135.45 51.88 136.96"/><polygon class="cls-151" points="49.32 135.45 45.7 145.03 38.7 140.91 49.01 135.28 49.32 135.45"/><polygon class="cls-152" points="48.99 135.26 49.01 135.28 38.7 140.91 36.79 139.79 47.1 134.15 48.99 135.26"/><polygon class="cls-151" points="47.1 134.15 36.79 139.79 34.14 138.23 44.44 132.6 47.1 134.15"/><polygon class="cls-162" points="46.65 201.43 46.65 201.53 44.23 202.94 41.84 204.32 41.83 198.14 44.22 196.76 46.66 195.34 46.65 201.43"/><polygon class="cls-163" points="46.66 195.24 46.66 195.34 44.22 196.76 41.83 198.14 28.77 190.78 28.77 190.19 30.98 188.97 31.67 188.59 31.89 188.72 41.85 194.52 41.99 194.6 42.5 194.9 42.64 194.82 44.21 193.91 46.66 195.24"/><polygon class="cls-146" points="46.04 131.72 44.44 132.6 41.94 131.13 43.55 130.25 46.04 131.72"/><path class="cls-146" d="M47,173.17l-2.9,2.06-.12,0s0,0,0,0A25.77,25.77,0,0,1,47,173.17Z"/><path class="cls-157" d="M44.26,190l.51-1c-.28.59-.44,1-.51,1.2Z"/><polygon class="cls-152" points="41.94 131.13 44.44 132.6 34.14 138.23 31.64 136.76 41.94 131.13"/><polygon class="cls-146" points="44.26 189.99 44.26 190.17 44.19 190.13 44.19 190.13 44.26 189.99"/><path class="cls-146" d="M44.14,175.23l0,6.56,0,0Z"/><path class="cls-157" d="M44.14,175.23l0,6.6a15.21,15.21,0,0,0-2.3,4.23l-.21-.12-.11-.06-4.11-2.41A20.12,20.12,0,0,1,44,175.18Z"/><path class="cls-146" d="M34.14,138.23l2.65,1.56-1.74.94-5.54-3.22-.25-.15c.15-.56,2.83-11.17,4-13a.83.83,0,0,1,.12-.16l10.16,6-1.61.88-7.63-4.46-.2-.06-2.87,9.91.4.24Z"/><polygon class="cls-151" points="41.94 131.13 31.64 136.76 31.24 136.52 34.11 126.61 34.31 126.67 41.94 131.13"/><polygon class="cls-146" points="41.84 204.32 41.84 204.42 37.86 202.1 41.82 204.33 41.84 204.32"/><path class="cls-68" d="M41.86,186.06v8.46l-10-5.8v-.25l0-19.68,5.71,3-.38,11.52.19.12a.32.32,0,0,0,0,.09l4.14,2.32.11.06Zm-1.17,3.32a3.72,3.72,0,0,0-1.79-2.94l-3.58-2.12c-1-.61-1.9-.29-2,.72l-.06,1.4a3.76,3.76,0,0,0,1.79,2.95l3.58,2.11c1,.61,1.9.29,1.94-.73Z"/><polygon class="cls-164" points="41.83 198.14 41.84 204.32 41.82 204.33 37.86 202.1 0 180.75 0.01 174.56 4.22 176.93 11.42 181 28.24 190.48 28.77 190.78 41.83 198.14"/><path class="cls-155" d="M37.43,183.47l4.11,2.41-4.14-2.32A.32.32,0,0,1,37.43,183.47Z"/><path class="cls-165" d="M38.9,186.44a3.72,3.72,0,0,1,1.79,2.94l-.07,1.39c0,1-.91,1.34-1.94.73l-3.58-2.11a3.76,3.76,0,0,1-1.79-2.95l.06-1.4c.05-1,.92-1.33,2-.72Zm1,2.63a2.94,2.94,0,0,0-1.41-2.32l-2.81-1.67c-.81-.48-1.5-.22-1.54.57l0,1.1a3,3,0,0,0,1.41,2.32l2.81,1.67c.82.48,1.49.22,1.53-.57Z"/><path class="cls-166" d="M38.49,186.75a2.94,2.94,0,0,1,1.41,2.32l0,1.1c0,.79-.71,1.05-1.53.57l-2.81-1.67a3,3,0,0,1-1.41-2.32l0-1.1c0-.79.73-1.05,1.54-.57Z"/><polygon class="cls-146" points="36.79 139.79 38.7 140.91 36.97 141.86 35.67 141.1 35.05 140.73 36.79 139.79"/><path class="cls-146" d="M37.7,171.79l-.08,0-5.71-3-.29-.16c-5.46-2.91-11.9-6.37-17.12-9.18l-.28-.14,0,0,.28.14,17.15,9.15.23-.13v.25Z"/><path class="cls-167" d="M37,141.86l.09,0L16,159.22,15,159l1.08-.94L35.67,141.1Z"/><path class="cls-160" d="M35.05,140.73l.62.37L16.12,158,15,159l-.24-.06-.55.37,0,0-5.64-3h0l20.92-18.75Z"/><path class="cls-146" d="M34,167.19l-1.84,1.1-.29.16v-.4l.18.14Z"/><polygon class="cls-155" points="31.89 188.47 31.89 188.72 31.67 188.59 31.89 188.47"/><path class="cls-168" d="M31.91,168.79l0,19.68-.22.12L31,189l-2.2,1.22V186.9l0-16.5v-.1l2.83-1.67Z"/><path class="cls-164" d="M31.91,168.29v.16l-.23.13-17.15-9.15-.28-.14.55-.37L15,159l.94.24a38.33,38.33,0,0,1,6.79,2.42,42.13,42.13,0,0,1,6.9,4.57c.9.7,1.67,1.34,2.24,1.84Z"/><path class="cls-164" d="M31.62,168.63l-2.83,1.67-.07,0A51.09,51.09,0,0,0,19.64,164a42.25,42.25,0,0,0-8.2-2.78v-.07l2.78-1.83.28.14C19.72,162.26,26.16,165.72,31.62,168.63Z"/><polygon class="cls-146" points="28.77 190.19 28.77 190.78 28.24 190.48 28.77 190.19"/><path class="cls-169" d="M28.77,187.68v2.51l-.53.29L11.42,181V161.21a42.25,42.25,0,0,1,8.2,2.78,51.09,51.09,0,0,1,9.08,6.34l.07.07,0,16.5Zm-1.5,1.1V186l0-14.9c-.48-.42-1.12-1-1.87-1.54l-.63-.49c-.45-.34-.93-.7-1.43-1.06l-.54-.37c-.55-.38-1.11-.75-1.68-1.09-.2-.12-.41-.25-.62-.36s-.66-.37-1-.54l-.67-.32-.61-.25c-.45-.19-.9-.36-1.35-.52l-.62-.21c-.53-.18-1-.33-1.52-.47l-.63-.18-1.55-.4v17.36l1.55.86.63.34,1.52.84.61.33,1.35.74.61.34,1.67.92.61.33,1.6.89.62.34,1.41.77.63.34Z"/><path class="cls-155" d="M28.79,170.3v.1l-.07-.07Z"/><path class="cls-141" d="M27.27,186.81v2l-1.9-1.05v-2.81l0-15.29,0,0c.75.58,1.39,1.12,1.87,1.54l0,14.9Z"/><path class="cls-170" d="M25.42,169.59l0,0,0,15.29v2.81l-.63-.34V169.14l0,0Z"/><path class="cls-141" d="M24.79,169.1l0,0v18.25l-1.41-.77v-2.89l0-15.69C23.86,168.4,24.34,168.76,24.79,169.1Z"/><path class="cls-170" d="M23.36,168l0,15.69v2.89l-.62-.34v-2.91l0-15.58.08-.12Z"/><path class="cls-141" d="M22.82,167.67l-.08.12,0,15.58v2.91l-1.6-.89v-2.94l0-15.87C21.71,166.92,22.27,167.29,22.82,167.67Z"/><path class="cls-170" d="M21.12,183.23v2.16l-.61-.33V166.22c.21.11.42.24.62.36l0,15.87Z"/><path class="cls-141" d="M20.51,182.87v2.19l-1.67-.92v-3l0-15.75.67.32c.33.17.67.35,1,.54v16.65Z"/><path class="cls-170" d="M18.84,181.9v2.24l-.61-.34v-3.05l0-15.6v0l.61.25,0,15.75Z"/><path class="cls-141" d="M18.25,165.11v0l0,15.6v3.05l-1.35-.74V180l0-15.38C17.35,164.75,17.8,164.92,18.25,165.11Z"/><path class="cls-170" d="M16.88,180.76v2.3l-.61-.33v-3.12l0-15.23.62.21,0,15.38Z"/><path class="cls-141" d="M16.26,180.4v2.33l-1.52-.84v-3.16l0-14.82c.48.14,1,.29,1.52.47l0,15.23Z"/><path class="cls-170" d="M14.74,179.51v2.38l-.63-.34V163.73l.63.18,0,14.82Z"/><path class="cls-68" d="M14.22,159.31l-2.78,1.83-.07.06h.07v9.4l-.1-.07-2.89-1.72-.68-.4c-1-.61-1.9-.29-1.95.73l0,1.39a1.86,1.86,0,0,0,0,.47,3.88,3.88,0,0,0,1.75,2.47l3.57,2.13.32.16v1L4.88,173c0-.12,0-.68,0-1.53,0-1.32-.08-3.36-.11-5.61,0-.1.09-.26.17-.46l3.65,2V156.27Z"/><path class="cls-141" d="M14.12,179.14v2.41l-1.55-.86V163.33l1.55.4v15.41Z"/><path class="cls-163" d="M11.43,177.58V181l-7.2-4.07L0,174.56v-.47l4.85-2.64c0,.85,0,1.41,0,1.53l6.55,3.82Z"/><path class="cls-165" d="M11.43,175.08v.69l-.32-.16-3.57-2.13A3.88,3.88,0,0,1,5.79,171a1.86,1.86,0,0,1,0-.47l0-1.39c.05-1,.92-1.34,2-.73l.68.4,2.89,1.72.1.07v.64a2.26,2.26,0,0,0-.5-.39l-2.81-1.67c-.81-.48-1.5-.23-1.54.57l0,1.1a3,3,0,0,0,1.41,2.31l2.82,1.68A1.53,1.53,0,0,0,11.43,175.08Z"/><path class="cls-166" d="M11.43,171.25v3.83a1.53,1.53,0,0,1-.67-.23l-2.82-1.68a3,3,0,0,1-1.41-2.31l0-1.1c0-.8.73-1,1.54-.57l2.81,1.67A2.26,2.26,0,0,1,11.43,171.25Z"/><path class="cls-155" d="M11.44,161.14v.07h-.07Z"/><path class="cls-146" d="M8.59,156.26h0L7,155.39Z"/><path class="cls-157" d="M8.58,159.79v7.63l-3.65-2A18.73,18.73,0,0,1,8.58,159.79Z"/></g><g id="_Group_3" data-name="&lt;Group&gt;"><path class="cls-142" d="M66.24,133.17a.93.93,0,0,1,1.29-.43,1.1,1.1,0,0,1,.15,1.44.94.94,0,0,1-1.3.44A1.11,1.11,0,0,1,66.24,133.17Z"/><path class="cls-143" d="M67.68,134.18a1.1,1.1,0,0,0-.15-1.44.93.93,0,0,0-1.29.43,1.11,1.11,0,0,0,.14,1.45A.94.94,0,0,0,67.68,134.18ZM65.92,133a1.39,1.39,0,0,1,1.82-.68h0l.06,0a1.6,1.6,0,0,1,.21,2.12,1.48,1.48,0,0,1-1.57.79,4.31,4.31,0,0,0-.56-.39A1.75,1.75,0,0,1,65.92,133Z"/><path class="cls-144" d="M67.81,132.32l-.06,0A4.15,4.15,0,0,1,71,135.74l0,14.9a7.55,7.55,0,0,0-2-.12,8.29,8.29,0,0,0-1.1.16l0-12.87a3.66,3.66,0,0,0-1.47-2.58,1.48,1.48,0,0,0,1.57-.79A1.6,1.6,0,0,0,67.81,132.32Z"/><path class="cls-144" d="M71,151.45v0c0,.26-.57.49-1.32.54s-1.65-.13-1.79-.43v-.17c.1-.24.61-.44,1.3-.49.86-.06,1.66.14,1.8.44C71,151.4,71,151.42,71,151.45Z"/><path class="cls-144" d="M69,150.52a7.55,7.55,0,0,1,2,.12v.81s0,0,0-.07c-.14-.3-.94-.5-1.8-.44-.69.05-1.2.25-1.3.49v-.75A8.29,8.29,0,0,1,69,150.52Z"/><path class="cls-143" d="M67.9,151.6v.85c-.69-.14-1.2-.39-1.34-.7a.45.45,0,0,1,0-.16c0-.36.53-.7,1.37-.91v.75A.17.17,0,0,0,67.9,151.6Z"/><path class="cls-143" d="M69.92,152.57a7.66,7.66,0,0,1-2-.12v-.85c.14.3.94.49,1.79.43s1.29-.28,1.32-.54a0,0,0,0,0,0,0v-.81c.7.14,1.21.39,1.35.7a.33.33,0,0,1,0,.29C72.21,152.08,71.24,152.48,69.92,152.57Z"/><path class="cls-145" d="M66.56,151.75c.14.31.65.56,1.34.7a7.66,7.66,0,0,0,2,.12c1.32-.09,2.29-.49,2.45-.94l0,18.24a3,3,0,0,1-5.85,0l0-18.27h0A.45.45,0,0,0,66.56,151.75Z"/></g></g></g></svg>