<svg xmlns="http://www.w3.org/2000/svg" viewBox="0 0 170.94 152.49"><defs><style>.cls-1{fill:#111;}.cls-2{fill:#262626;}.cls-3{fill:#a1a5aa;}.cls-4{fill:#dadada;}.cls-5{fill:#2b2b2b;}.cls-6{fill:#c5c5c5;}.cls-7{fill:#ebebeb;}.cls-8{fill:#ebbc00;}.cls-9{fill:#f37900;}.cls-10{fill:#f3c400;}.cls-11{fill:#e1b600;}.cls-12{fill:#98e4ff;}.cls-13{fill:#dfb400;}.cls-14{fill:#e8f8ff;}.cls-15{fill:#6a6c71;}.cls-16{fill:#494949;}.cls-17{fill:#8e8f93;}.cls-18{fill:#9ea1a3;}.cls-19{fill:#626466;}.cls-20{fill:#56575b;}.cls-21{fill:#444549;}.cls-22{fill:#707070;}.cls-23{fill:#e77700;}.cls-24{fill:#dc6e00;}.cls-25{fill:#252525;}.cls-26{fill:#1c1c1c;}.cls-27{fill:#b9b9b9;}</style></defs><title>Asset 3</title><g id="Layer_2" data-name="Layer 2"><g id="Layer_1-2" data-name="Layer 1"><path class="cls-1" d="M106.57,63.43c2.18-1.26,4.16-1.38,5.58-.55l39.62,23c-1.43-.83-3.4-.71-5.58.55C141.86,89,138.35,95,138.37,100c0,2.47.88,4.21,2.29,5L101,82c-1.4-.82-2.28-2.56-2.28-5C98.74,72,102.24,65.93,106.57,63.43Z"/><path class="cls-2" d="M146.19,86.45C141.86,89,138.35,95,138.37,100s3.54,7,7.87,4.48,7.83-8.56,7.81-13.54S150.52,84,146.19,86.45Z"/><path class="cls-3" d="M146.19,89.38a11.62,11.62,0,0,0-5.27,9.14c0,3.36,2.38,4.71,5.31,3a11.6,11.6,0,0,0,5.27-9.14C151.49,89,149.12,87.69,146.19,89.38Z"/><path class="cls-2" d="M146.2,92.75a5.19,5.19,0,0,0-2.35,4.07c0,1.5,1.07,2.1,2.37,1.35a5.19,5.19,0,0,0,2.35-4.07C148.56,92.6,147.5,92,146.2,92.75Z"/><path class="cls-4" d="M170.79,27.2l.15,54-14.43,8.33h0l-1.15.66c0-5.8-4.13-8.14-9.18-5.23s-9.14,10-9.12,15.8l-.7.41h0L85,130.8l-.15-54Z"/><path class="cls-5" d="M138,95.54a16.25,16.25,0,0,0-.94,5.2l-.7.41h0L85,130.8v-4.66Z"/><path class="cls-5" d="M170.93,76.53v4.66l-14.43,8.33h0l-1.15.66a8.26,8.26,0,0,0-1-4.1Z"/><polygon class="cls-6" points="84.85 76.82 38.05 49.62 38.2 103.6 85 130.8 84.85 76.82"/><polygon class="cls-7" points="170.79 27.2 123.99 0 38.05 49.62 84.85 76.82 170.79 27.2"/><polygon class="cls-8" points="137.42 57.98 170.79 38.71 170.81 47.93 137.42 67.21 137.42 57.98"/><polygon class="cls-5" points="80.95 123.79 84.99 126.14 85 130.8 80.95 128.45 80.95 123.79"/><polygon class="cls-9" points="1.1 114.32 2.41 113.56 2.41 115.07 1.1 114.32"/><path class="cls-5" d="M146.28,84.89c2.66-1.5,5.05-1.54,6.71-.38l.28.19a3.7,3.7,0,0,1,.28.28,2.61,2.61,0,0,1,.24.23,4.08,4.08,0,0,1,.25.33,2.78,2.78,0,0,1,.21.27c.08.12.14.26.21.39l.18.31c.06.14.11.29.17.44s.1.22.13.34a4.58,4.58,0,0,1,.14.53c0,.12.07.23.09.35s.07.42.1.64,0,.21,0,.32c0,.33.05.68.05,1Z"/><path class="cls-5" d="M63.27,131.25l-39.62-23c1.65,1,2.66,3,2.67,5.86l39.62,23C65.93,134.23,64.91,132.2,63.27,131.25Z"/><path class="cls-1" d="M17.15,110.37c2.18-1.26,4.15-1.38,5.58-.55l39.61,23c-1.43-.83-3.4-.71-5.58.55a17.24,17.24,0,0,0-7.82,13.54c0,2.47.88,4.21,2.29,5l-39.61-23c-1.41-.82-2.28-2.56-2.29-5C9.31,118.93,12.82,112.87,17.15,110.37Z"/><path class="cls-2" d="M56.76,133.39a17.24,17.24,0,0,0-7.82,13.54c0,5,3.54,7,7.87,4.48a17.24,17.24,0,0,0,7.82-13.54C64.61,132.89,61.09,130.89,56.76,133.39Z"/><path class="cls-3" d="M56.77,136.32a11.62,11.62,0,0,0-5.28,9.14c0,3.36,2.39,4.71,5.31,3a11.59,11.59,0,0,0,5.28-9.14C62.07,136,59.69,134.63,56.77,136.32Z"/><path class="cls-2" d="M56.78,139.69a5.13,5.13,0,0,0-2.35,4.07c0,1.5,1.06,2.1,2.36,1.35A5.19,5.19,0,0,0,59.14,141C59.14,139.54,58.08,138.94,56.78,139.69Z"/><polygon class="cls-10" points="42.02 132.82 2.41 109.8 14.48 94.6 54.09 117.62 42.02 132.82"/><polygon class="cls-11" points="42.02 132.82 2.41 109.8 2.41 127.92 42.02 150.94 42.02 132.82"/><polygon class="cls-10" points="80.95 83.34 41.34 60.32 19.66 72.84 59.27 95.86 80.95 83.34"/><polygon class="cls-11" points="59.27 95.86 19.66 72.84 14.48 94.6 54.09 117.62 59.27 95.86"/><polygon class="cls-12" points="56.05 97.24 21.52 77.17 17.7 93.22 52.24 113.29 56.05 97.24"/><path class="cls-8" d="M42,132.82l12.07-15.2,5.18-21.76L81,83.34v45.11l-15,8.66c0-5.8-4.13-8.14-9.18-5.23s-9.14,10-9.13,15.8L42,150.92Z"/><path class="cls-13" d="M79.54,85.78v41.86l-12.42,7.17c-.7-3.46-3-5.59-6.26-5.59a9.67,9.67,0,0,0-4.81,1.45l-.66.42V118.25L60.5,96.77Z"/><polygon class="cls-12" points="62.02 97.84 78.27 88.45 78.27 101.97 58.3 113.5 62.02 97.84"/><polygon class="cls-14" points="46.07 109.71 39.7 106.01 32.33 83.45 38.7 87.15 46.07 109.71"/><polygon class="cls-14" points="37.72 104.85 35.06 103.31 27.68 80.75 30.34 82.3 37.72 104.85"/><path class="cls-15" d="M73.63,108.62l3.73-2.15a.58.58,0,0,1,.64,0h0l.27.16-.1.06a1,1,0,0,1,0,.31l-3.16,1.82L73.3,110l-.24.28-.28-.17A1.89,1.89,0,0,1,73.63,108.62Z"/><path class="cls-3" d="M73.92,108.79a1.9,1.9,0,0,0-.86,1.48l5.45-3.14c0-.54-.39-.76-.86-.49Z"/><polygon class="cls-16" points="24.16 126.33 24.14 131.14 24.73 131.48 24.74 126.67 24.16 126.33"/><polygon class="cls-16" points="27.01 127.98 27 132.79 27.58 133.12 27.59 128.32 27.01 127.98"/><path class="cls-17" d="M13,125.66l17.11,9.88,0-6.69L13,119Zm15.41,8V128.8l.58.34V134ZM27,132.79V128l.58.34v4.8ZM25.57,132v-4.8l.59.33,0,4.81Zm-1.43-.82,0-4.81.58.34v4.81Zm-1.42-.82v-4.81l.58.33v4.81Zm-1.43-.83v-4.81l.58.34v4.81Zm-1.43-.82,0-4.81.58.34,0,4.8Zm-1.42-.83V123l.58.33v4.81ZM17,127l0-4.81.58.34v4.81Zm-1.42-.83v-4.8l.59.33,0,4.81Zm-1.43-.82v-4.81l.59.34v4.81Z"/><polygon class="cls-16" points="14.16 120.56 14.15 125.37 14.73 125.71 14.75 120.9 14.16 120.56"/><polygon class="cls-16" points="15.59 121.39 15.58 126.19 16.16 126.53 16.18 121.72 15.59 121.39"/><polygon class="cls-16" points="17.02 122.21 17 127.02 17.59 127.36 17.6 122.55 17.02 122.21"/><polygon class="cls-16" points="18.45 123.04 18.43 127.84 19.02 128.18 19.03 123.37 18.45 123.04"/><polygon class="cls-16" points="19.88 123.86 19.86 128.67 20.44 129 20.46 124.2 19.88 123.86"/><polygon class="cls-16" points="21.3 124.68 21.29 129.49 21.87 129.83 21.89 125.02 21.3 124.68"/><polygon class="cls-16" points="22.73 125.51 22.72 130.32 23.3 130.65 23.31 125.84 22.73 125.51"/><polygon class="cls-16" points="25.59 127.16 25.57 131.96 26.15 132.3 26.17 127.49 25.59 127.16"/><polygon class="cls-16" points="28.44 128.8 28.43 133.61 29.01 133.95 29.02 129.14 28.44 128.8"/><polygon class="cls-18" points="30.15 128.85 30.52 128.64 13.41 118.76 13.04 118.98 30.15 128.85"/><polygon class="cls-19" points="30.13 135.54 30.5 135.32 30.52 128.64 30.15 128.85 30.13 135.54"/><polygon class="cls-20" points="42 146 42.02 152.31 0.02 127.9 0 121.59 42 146"/><polygon class="cls-21" points="45.89 150.06 42.02 152.31 42 146 45.89 143.75 45.89 150.06"/><polygon class="cls-20" points="44.72 143.05 45.89 143.75 42 146 42 144.61 44.72 143.05"/><polygon class="cls-22" points="2.41 122.98 0.01 121.59 2.41 120.2 2.41 122.98"/><polygon class="cls-22" points="42 146 2.06 122.79 2.41 121.6 42 144.61 42.02 150.92 42.02 150.92 42 146"/><polygon class="cls-23" points="42.02 140.15 35.96 136.66 35.96 134.12 42.02 137.62 42.02 140.15"/><polygon class="cls-23" points="42.02 136.87 44.85 135.22 45.5 135.61 42.02 137.63 42.02 136.87"/><polygon class="cls-9" points="42.02 136.87 36.61 133.75 35.96 134.14 42.02 137.63 42.02 136.87"/><polygon class="cls-24" points="45.5 138.14 42.02 140.15 42.02 137.62 45.5 135.61 45.5 138.14"/><polygon class="cls-23" points="7.16 120.34 1.1 116.85 1.1 114.32 7.16 117.81 7.16 120.34"/><polygon class="cls-9" points="7.81 117.43 1.81 113.97 1.1 114.33 7.16 117.83 7.81 117.43"/><polygon class="cls-24" points="7.81 117.43 7.81 119.97 7.16 120.34 7.16 117.83 7.81 117.43"/><polygon class="cls-5" points="10.95 130.77 27.45 140.3 27.44 145.86 10.94 136.33 10.95 130.77"/><polygon class="cls-25" points="27.45 140.3 28.12 139.92 11.61 130.39 10.95 130.77 27.45 140.3"/><polygon class="cls-26" points="27.44 145.86 28.1 145.47 28.12 139.92 27.45 140.3 27.44 145.86"/><polygon class="cls-27" points="12.11 133.07 12.96 134.99 12.96 135.88 13.49 136.19 13.5 135.3 14.35 134.36 13.75 134.01 13.24 134.64 12.72 133.42 12.11 133.07"/><polygon class="cls-27" points="16.25 135.46 16.25 135.92 17.17 136.45 17.17 136.89 16.31 136.4 16.31 136.87 17.17 137.36 17.16 137.84 16.24 137.3 16.24 137.77 17.68 138.6 17.69 136.29 16.25 135.46"/><polygon class="cls-27" points="17.81 136.35 18.72 139.2 19.14 139.45 20.07 137.66 19.51 137.34 18.93 138.56 18.34 136.66 17.81 136.35"/><polygon class="cls-27" points="20.18 137.73 20.18 140.04 20.71 140.35 20.71 138.03 20.18 137.73"/><polygon class="cls-27" points="22.63 139.14 22.63 139.6 23.55 140.14 23.55 140.58 22.68 140.08 22.68 140.55 23.55 141.04 23.54 141.52 22.62 140.99 22.62 141.46 24.06 142.29 24.07 139.97 22.63 139.14"/><polygon class="cls-27" points="21.82 138.67 21.82 140.5 20.96 140 20.96 140.5 22.35 141.3 22.36 138.98 21.82 138.67"/><path class="cls-27" d="M24.38,141.3a2,2,0,0,0,.12.7,2.17,2.17,0,0,0,.37.62,2.44,2.44,0,0,0,.58.47l.83.48v-2.32l-.82-.48a1.22,1.22,0,0,0-.58-.19.41.41,0,0,0-.37.18A.94.94,0,0,0,24.38,141.3Zm.53.31c0-.44.19-.55.58-.33l.26.15v1.34l-.26-.15a1.05,1.05,0,0,1-.44-.42A1,1,0,0,1,24.91,141.61Z"/><path class="cls-27" d="M14.22,136.6l.56.33.26-.62c0-.07.11-.07.22,0l.19.11v.9l.52.31V135.3l-.94-.54c-.25-.14-.43-.19-.55-.14s-.19.19-.19.41a1.15,1.15,0,0,0,.11.47,1.52,1.52,0,0,0,.31.42.22.22,0,0,0-.16,0,.23.23,0,0,0-.1.13Zm.58-1.27c0-.09,0-.14.07-.15a.4.4,0,0,1,.25.09l.34.19v.5l-.34-.19a.86.86,0,0,1-.24-.21A.32.32,0,0,1,14.8,135.33Z"/></g></g></svg>