<svg xmlns="http://www.w3.org/2000/svg" viewBox="0 0 155.66 150.51"><defs><style>.cls-1{fill:#414042;}.cls-2{fill:#231f20;}.cls-3{fill:#c6c6c6;}.cls-4{fill:#f8971d;}.cls-5{fill:#ddd;}.cls-6{fill:#fafafa;}.cls-7{fill:#fdbb30;}.cls-8{fill:#fbb040;}.cls-9{fill:#fba432;}.cls-10{fill:#58595b;}.cls-11{fill:#e6e7e8;}.cls-12{fill:#ade0ee;}.cls-13{fill:#89d4e3;}.cls-14{fill:#ffe14f;}.cls-15{fill:#939598;}.cls-16{fill:#6d6e71;}</style></defs><title>Asset 7</title><g id="Layer_2" data-name="Layer 2"><g id="Layer_1-2" data-name="Layer 1"><polygon class="cls-1" points="38.73 146.01 155.66 78.73 114.22 60.4 0 123.68 38.73 146.01"/><polygon class="cls-2" points="4.61 125.93 0 128.18 0 123.68 4.61 121.44 4.61 125.93"/><polygon class="cls-2" points="151.05 81.33 155.66 83.22 155.66 78.73 151.05 76.84 151.05 81.33"/><polygon class="cls-3" points="152.63 75.44 79.52 115.17 79.52 62.64 152.63 22.91 152.63 75.44"/><polygon class="cls-4" points="152.63 55.44 79.52 95.16 79.52 77.3 152.63 37.57 152.63 55.44"/><polygon class="cls-4" points="152.63 65.13 79.52 104.86 79.52 100.04 152.63 60.31 152.63 65.13"/><polygon class="cls-5" points="37.4 92.26 79.52 115.17 79.52 62.64 37.4 39.73 37.4 92.26"/><polygon class="cls-6" points="37.4 39.73 79.52 62.64 152.63 22.91 110.51 0 37.4 39.73"/><polygon class="cls-4" points="74.04 125.19 74.04 81.22 52.31 93.86 38.77 126.2 38.77 146.02 74.04 125.19"/><polygon class="cls-7" points="52.31 93.86 17.18 73.89 36.9 62.02 74.04 81.22 52.31 93.86"/><polygon class="cls-8" points="52.31 93.86 38.77 126.2 2.14 106.44 17.18 73.89 52.31 93.86"/><polygon class="cls-9" points="2.14 106.44 38.77 126.2 38.77 146.02 2.24 124.94 2.14 106.44"/><polygon class="cls-10" points="38.73 150.51 0 128.18 0 123.68 38.73 146.01 38.73 150.51"/><polygon class="cls-11" points="24.38 140.26 13.39 133.74 13.39 128.46 24.38 134.69 24.38 140.26"/><polygon class="cls-10" points="38.73 150.51 155.66 83.22 155.66 78.73 38.73 146.01 38.73 150.51"/><polygon class="cls-12" points="48.06 94.31 38.35 117.45 7.72 100.79 18.73 77.75 48.06 94.31"/><polygon class="cls-13" points="67.36 108.52 67.36 89.69 55.3 96.81 45.71 121.14 67.36 108.52"/><polygon class="cls-14" points="35.63 137.68 29.19 134.02 29.19 128.35 35.63 132.02 35.63 137.68"/><polygon class="cls-14" points="10.36 124.16 3.92 120.5 3.92 114.83 10.36 118.5 10.36 124.16"/><path class="cls-2" d="M145.89,88.3c-1.52,5.27-6.87,16.19-10.74,16.29-7.45-1.93-8.61-6-7.05-11.35s6-9.62,9.81-9.68S145.82,86.78,145.89,88.3Z"/><path class="cls-1" d="M146.14,95c-1.52,5.27-5.89,9.63-9.76,9.74s-5.8-4.14-4.24-9.45,6-9.63,9.82-9.68S147.67,89.74,146.14,95Z"/><path class="cls-15" d="M142.91,94.58c-.82,2.92-3.23,5.56-5.43,5.79s-3.31-2.21-2.26-5.34,3.51-5.33,5.55-5.36S143.69,91.8,142.91,94.58Z"/><path class="cls-16" d="M141.85,90a4.71,4.71,0,0,1,.33,4c-.81,2.92-3.22,5.56-5.43,5.79a2.31,2.31,0,0,1-1.33-.25,2.16,2.16,0,0,0,2.06.87c2.2-.23,4.61-2.87,5.43-5.79C143.53,92.38,143.05,90.59,141.85,90Z"/><path class="cls-2" d="M68.4,133c-1.52,5.26-6.87,16.19-10.74,16.29-7.45-1.94-8.61-6-7.06-11.35s6-9.63,9.82-9.68S68.32,131.44,68.4,133Z"/><path class="cls-1" d="M68.65,139.65c-1.52,5.27-5.89,9.63-9.76,9.73s-5.8-4.13-4.24-9.45,6-9.63,9.82-9.68S70.17,134.4,68.65,139.65Z"/><path class="cls-15" d="M65.42,139.24c-.82,2.91-3.23,5.55-5.43,5.78s-3.31-2.21-2.26-5.33,3.5-5.34,5.55-5.36S66.2,136.46,65.42,139.24Z"/><path class="cls-16" d="M64.36,134.6a4.73,4.73,0,0,1,.33,4c-.81,2.91-3.22,5.55-5.43,5.78a2.22,2.22,0,0,1-1.33-.24A2.14,2.14,0,0,0,60,145c2.2-.23,4.61-2.87,5.43-5.78C66,137,65.56,135.24,64.36,134.6Z"/><polygon class="cls-13" points="48.06 94.31 7.72 100.79 38.35 117.45 48.06 94.31"/></g></g></svg>